<svg width="42" height="63" viewBox="0 0 42 63" fill="none" xmlns="http://www.w3.org/2000/svg">
<path fill-rule="evenodd" clip-rule="evenodd" d="M16.357 13.4097C16.3435 13.3118 16.3299 13.2146 16.3164 13.1168C13.8505 13.3976 11.3852 13.6783 8.91935 13.9591C8.93641 14.0817 8.95347 14.2036 8.96994 14.3256C11.4323 14.0201 13.8946 13.7152 16.357 13.4097ZM2.91288 31.4691C1.38876 30.7355 0.72641 29.79 0.414057 28.5016C-1.31477 21.3457 2.3117 12.5318 12.3882 12.2359C17.1711 12.0952 20.9705 10.3697 23.2435 5.76347C24.0352 4.15984 25.0323 2.63531 26.1241 1.22852C26.6211 0.587919 27.557 0.0559941 28.3299 0.000446911C28.6988 -0.0261191 29.4282 1.13796 29.5064 1.82203C29.6358 2.95833 29.7023 4.32105 29.2135 5.2732C27.7735 8.07773 26.2235 10.8623 24.3823 13.3982C22.6776 15.7463 20.2076 16.8711 17.3064 17.5763C14.3976 18.2827 11.4394 17.6934 8.54641 18.7392C5.85464 19.7118 2.7217 24.478 2.90053 27.4987C2.97288 28.7201 2.91288 29.95 2.91288 31.4691Z" fill="white"/>
<path fill-rule="evenodd" clip-rule="evenodd" d="M10.2552 39.8813C10.1814 38.9101 9.85523 37.8788 10.076 36.9767C11.1429 32.6103 17.2392 29.2751 21.3305 31.2159C26.9027 33.8588 30.9765 31.8021 34.9413 28.166C36.284 26.9348 37.8457 25.8949 39.4379 24.9905C39.887 24.7351 41.2197 25.0747 41.4094 25.4782C41.8234 26.3555 42.2579 27.9332 41.8135 28.3753C39.1872 30.9853 36.5516 33.7142 33.4546 35.7023C30.1128 37.8483 26.2457 38.5815 22.3265 36.545C20.5833 35.6394 18.8272 34.7119 16.653 35.263C14.3078 35.8573 12.5968 37.1301 11.4158 39.1695C11.2664 39.4283 11.0656 39.6583 10.8887 39.9021C10.6774 39.8952 10.466 39.8883 10.2552 39.8813Z" fill="white"/>
<path fill-rule="evenodd" clip-rule="evenodd" d="M36.8498 58.5884C36.8317 58.4697 36.8135 58.351 36.7948 58.233H25.4729C25.4712 58.351 25.47 58.4697 25.4682 58.5884H36.8498ZM10.0005 53.7073C10.052 52.5593 10.0883 51.7514 10.1247 50.9436C11.3772 52.8416 12.6046 51.1341 13.7219 51.0634H11.9168C11.4915 50.2409 13.914 50.5934 12.109 49.3892C14.3898 49.0023 16.4561 48.2739 18.1088 50.0036C18.8259 50.7548 20.3117 51.1932 20.2273 53.0275C20.2912 53.0754 20.877 53.3128 21.1489 53.7459C23.3359 57.238 26.7474 57.521 30.354 57.3532C32.3172 57.2614 34.301 56.975 36.2373 57.1656C37.7089 57.3105 39.1707 57.9576 40.5428 58.586C41.8604 59.1899 41.9699 60.6284 42.0004 61.8402C42.0092 62.1991 40.8861 62.9398 40.3242 62.9006C36.6632 62.6475 33.0138 62.2278 29.3322 61.9817C30.1454 61.9273 30.9574 61.8735 31.7706 61.8192C31.78 61.7327 31.7882 61.6456 31.7976 61.5596C31.4279 61.5029 31.0389 61.5018 30.6938 61.3784C30.0763 61.1586 29.4617 60.9102 28.8917 60.5916C28.2636 60.2409 27.6877 59.7972 26.9519 59.6961C27.2255 60.2491 27.4985 60.8026 27.6467 61.1019C26.9021 61.313 26.4902 61.4912 26.0666 61.531C25.6454 61.5702 25.0853 61.6269 24.8041 61.403C23.555 60.4092 22.0535 59.8557 21.2116 58.1833C20.1611 56.0946 18.482 54.3176 17.0402 52.4318C16.8398 52.1694 16.4344 51.8818 16.1403 51.8987C14.5204 51.9917 12.8958 52.1185 11.2946 52.3699C10.9255 52.4277 10.6408 53.0211 10.0005 53.7073Z" fill="white"/>
</svg>
