<svg width="103" height="74" viewBox="0 0 103 74" fill="none" xmlns="http://www.w3.org/2000/svg">
<path opacity="0.1" fill-rule="evenodd" clip-rule="evenodd" d="M9.0893 66.4835C9.49161 65.9262 9.68197 65.6621 9.94352 65.3008L10.4618 65.219C11.0362 64.4984 11.5826 63.7963 12.1469 63.1096C12.6229 62.53 13.1551 61.9925 13.5978 61.39C14.0908 60.7185 14.6574 60.1105 15.1252 59.4074C15.5468 58.7727 15.8153 57.971 16.452 57.5177C17.1933 56.9921 17.2997 56.0771 17.897 55.4676C18.4487 54.9049 18.8949 54.2395 19.3861 53.6206C19.3717 53.6101 19.2748 53.5403 19.155 53.4525C20.3762 51.4171 21.6537 49.4023 22.2856 46.9354C22.3429 46.9028 22.5353 46.792 22.7721 46.656C22.6474 46.5422 22.5337 46.4381 22.4162 46.3312C22.8591 45.0324 23.2287 43.6822 23.7087 42.4023C24.3002 40.8265 24.5162 39.1316 25.3553 37.6287C25.7767 36.874 25.9758 35.9344 26.032 35.0629C26.0657 34.529 26.4156 34.5784 26.6549 34.344C26.5226 34.1899 26.3908 34.035 26.2133 33.8282C26.5645 32.7988 26.9256 31.739 27.2978 30.6473C27.5359 30.8042 27.6798 30.8995 27.9073 31.0494C28.2964 30.6713 29.0037 30.5757 29.0114 29.4442C29.2859 29.9549 29.4559 30.2708 29.6649 30.6597C30.0568 30.0747 30.211 29.845 30.4054 29.5554C30.2513 29.3738 30.1064 29.2042 29.9475 29.0174C30.0608 28.7157 30.1899 28.3694 30.3149 28.0357C30.4645 28.0356 30.643 27.9893 30.6837 28.0432C30.9802 28.4471 31.2498 28.8714 31.5259 29.2859C32.3953 29.3075 32.1879 28.4918 32.4887 28.0774C32.5865 28.1485 32.6836 28.2196 32.8191 28.3176C33.0124 28.1784 33.2185 28.0305 33.4354 27.8749C33.8039 28.2587 34.1514 28.6203 34.6444 29.1341C34.989 30.5935 35.2511 32.3082 35.8322 33.9067C36.1317 34.7327 36.1453 35.6978 36.5963 36.3577C37.1557 37.1775 36.8946 38.1276 37.3244 38.8526C37.7975 39.6525 37.7159 40.5796 38.0921 41.3224C38.5053 42.1379 38.4661 43.057 38.8397 43.8002C39.7295 45.5693 39.963 47.6043 41.1243 49.2487C41.0337 50.0767 41.8514 50.7605 41.5003 51.6296C42.1491 52.3695 42.4284 53.2886 42.7633 54.1855C43.2356 55.4518 44.1132 56.5406 44.3488 57.9221C44.4159 58.3126 44.7833 58.6516 45.1575 59.2411C45.3775 57.4913 45.5669 55.9897 45.798 54.1529C45.9059 54.0339 46.2655 53.6391 46.6285 53.241C46.3958 52.7445 46.232 52.3954 46.0578 52.0225C46.4243 50.3172 46.1702 48.3605 47.2832 46.7393C46.5312 46.3013 46.9171 45.4448 46.6416 44.8941C47.3115 42.8377 47.0927 40.7855 47.2945 38.5341C47.3164 38.5072 47.5035 38.2731 47.6816 38.0504C47.8538 37.2338 47.3284 36.481 47.703 35.6169C47.9757 34.9903 47.917 34.1135 47.7306 33.4218C47.5034 32.5777 47.6035 31.708 47.8296 31.0291C48.1102 30.1859 47.7271 29.518 47.8114 28.689C47.939 28.5286 48.126 28.2939 48.3852 27.9685C47.9415 26.2256 48.0043 24.3811 47.8529 22.5048C48.0538 22.2946 48.2548 22.0851 48.5138 21.8142L48.2248 19.9844C48.5264 20.1695 48.6654 20.2555 48.9552 20.4345C48.7223 19.5329 49.1265 18.9324 49.7314 18.3372C49.9126 18.4058 50.1216 18.4848 50.2991 18.5513C51.0794 17.5078 51.8807 16.4362 52.6116 15.4581C53.1068 15.5188 53.4825 15.5654 53.9674 15.625C54.05 15.7441 54.2047 15.9678 54.3593 16.1909L54.7775 16.1248C54.8109 15.9284 54.8478 15.712 54.9037 15.3825C55.9451 15.1382 56.742 15.6522 57.4951 16.259C57.7668 17.066 57.7668 17.066 58.89 17.4674C58.6133 17.1167 58.5084 16.9837 58.3456 16.7767C58.5001 16.71 58.6751 16.6334 58.9188 16.5285C59.0421 16.9189 59.1431 17.2396 59.2689 17.637C59.4235 17.469 59.5267 17.3581 59.6029 17.2757C60.6064 17.7853 61.612 18.2958 62.7387 18.8684L62.8642 19.6629C63.045 19.4526 63.151 19.3299 63.2944 19.163C63.3979 19.36 63.495 19.5458 63.6236 19.7911L64.3795 19.6718C64.6478 19.8668 64.8419 20.0086 65.0374 20.1507C64.7754 20.5899 64.8113 21.2295 64.1784 21.4267C65.0636 21.8711 65.292 21.0831 65.7914 20.5253C65.878 20.8738 65.9457 21.1455 66.0163 21.4309C66.82 21.7587 67.5449 22.2499 68.558 22.12C69.4034 22.0113 69.9502 22.7809 70.4247 23.5638C70.5871 23.3986 70.6853 23.2986 70.8804 23.0988C70.9937 23.4082 71.0934 23.6829 71.2205 24.0331C71.3031 24.0079 71.4253 23.9705 71.7889 23.8608C72.3101 24.1199 72.9982 24.637 73.7626 24.8013C74.8513 25.0352 75.3714 26.1027 76.4902 26.3238C77.4713 26.5176 78.397 27.0233 79.2869 27.6079C80.5001 28.405 81.9024 28.9132 83.3194 29.5909L83.1648 28.6119C82.982 28.5589 82.7191 28.4824 82.3604 28.3774C82.4848 28.0861 82.5941 27.8314 82.7237 27.5265C82.387 27.1149 82.0714 26.6409 81.6667 26.2614C81.328 25.9433 81.1953 25.311 80.5353 25.4172C80.6065 24.7131 80.0477 24.4284 79.597 24.0931C79.698 23.9551 79.7685 23.8581 79.8236 23.7823C78.1767 22.5493 76.9862 20.9277 75.9048 19.207C75.3612 18.8313 74.8182 18.4556 74.2805 18.0831L74.187 17.4915C73.4991 16.7926 72.9007 16.1848 72.2194 15.4935C72.5494 15.2301 72.7834 15.0429 73.0853 14.8014C72.7134 14.3363 72.3633 13.8992 72.0391 13.4943C71.5931 13.6815 71.208 13.8423 70.8268 14.0024C69.9501 13.0509 69.1455 12.1779 68.1166 11.0613C68.8332 11.1097 69.0724 11.4395 69.4244 11.6422C69.7458 10.8697 68.9577 10.8318 68.6849 10.4805C68.7836 10.2858 68.8832 10.093 69.0956 9.67917C68.7482 9.6455 68.4232 9.61366 68.0982 9.58182C68.1722 9.4769 68.2462 9.37198 68.3195 9.26716C68.1123 9.43739 67.9051 9.60762 67.6764 9.79467C67.3659 9.35807 67.1098 8.99742 66.8577 8.64149C66.9805 8.44636 67.0738 8.29815 67.1747 8.13867C67.0482 8.03858 66.9146 7.93157 66.7413 7.79394C66.27 7.9616 65.7688 8.1387 65.3122 8.30137C64.2407 6.99966 63.222 5.76069 62.2026 4.52183C62.244 4.46565 62.2847 4.40892 62.3256 4.3535C62.4794 4.43116 62.6331 4.50817 63.0134 4.69963C62.7055 3.82463 62.4513 3.1028 62.1559 2.26407C62.8085 1.95374 63.4118 1.66727 64.288 1.25187C64.3042 1.22314 64.4789 0.910483 64.7006 0.513919C66.1476 2.12458 67.8287 3.30588 69.3979 4.58198C71.5698 6.34846 73.351 8.47445 75.3871 10.3576C77.5071 12.3181 79.3679 14.561 81.3484 16.6743C82.4755 17.878 83.6409 19.0475 84.7447 20.2731C86.2936 21.9937 87.8723 23.6949 89.2918 25.5179C89.917 26.3213 90.7976 26.8516 91.2994 27.8113C91.73 28.6354 92.5873 29.2385 93.2636 29.9319C94.9901 31.703 96.6627 33.5229 98.5883 35.0975C99.8428 36.1221 100.963 37.3128 102.316 38.5922L102.653 40.7237C102.139 40.8217 101.613 41.1106 100.958 40.6319C100.979 41.1094 101 41.5556 101.02 41.977C99.6925 43.0613 98.1412 43.4573 96.2696 43.5195C96.1234 43.3709 95.8309 43.0736 95.2943 42.5299C95.2432 42.4441 94.9888 42.0181 94.6839 41.5062C94.1562 41.7961 93.7599 42.0136 93.3865 42.2188C92.671 41.8462 91.9282 41.5215 91.2543 41.09C90.6798 40.7226 89.7401 40.9012 89.6874 39.7646C89.4651 40.0687 89.3946 40.1663 89.2623 40.3475C88.8136 39.5706 87.5421 39.984 87.3475 38.8544C87.0288 38.8665 86.7428 38.8774 86.4042 38.8907C86.3469 38.7488 86.284 38.593 86.2145 38.4202C83.9654 37.9484 82.0492 36.6882 80.0298 35.5557C79.8989 35.5764 79.6902 35.6778 79.5469 35.6199C78.9685 35.3853 78.1679 35.2468 77.8998 34.8021C77.465 34.0793 76.3171 34.3029 76.2331 33.2698C75.7973 33.3131 75.3931 33.3535 74.96 33.3971C74.856 33.2103 74.7482 33.016 74.6161 32.7786C74.4056 32.8005 74.1747 32.8249 73.8182 32.8611C73.3495 32.5011 72.8045 32.0828 72.1596 31.5877C72.5302 31.3353 72.7489 31.1867 73.0524 30.9812C72.5568 30.7522 72.1097 30.5458 71.6619 30.3395C71.5014 30.4783 71.3421 30.6168 71.0881 30.8387C70.8737 30.5814 70.716 30.2917 70.4727 30.1316C70.2601 29.9915 69.9511 29.9974 69.6891 29.9395C69.5543 30.0674 69.3917 30.2225 69.1147 30.4856C68.8931 30.2168 68.7044 29.9863 68.3857 29.5993C68.3997 29.4838 68.445 29.1037 68.4968 28.6716L67.7736 28.7858C67.353 28.2291 67.0637 27.8368 66.2526 27.7939C64.8742 27.7212 63.5738 27.0727 62.2531 26.6313C62.0506 26.564 61.9398 26.2233 61.7889 26.0111C61.6621 26.1552 61.5568 26.2744 61.5677 26.2627C60.9043 25.855 60.2308 25.5616 59.7174 25.0927C59.1948 24.6165 58.8299 23.9665 58.287 23.2473C57.8719 23.1499 57.8291 23.5417 58.1789 24.4778C57.5796 23.9325 57.3783 23.7497 57.1346 23.5273C57.2112 23.2858 57.29 23.0372 57.4399 22.5641C56.9762 22.8346 56.6648 23.0159 56.3135 23.221C56.1832 23.1517 56.0319 23.0729 55.7861 22.9434C55.6567 23.1349 55.3439 23.4009 55.3904 23.564C55.6183 24.3611 55.3257 25.0358 55.0999 25.6825C55.6491 26.9346 55.1088 28.1937 55.1642 29.4279C55.2266 30.7864 55.2198 32.1705 55.0167 33.5092C54.8235 34.7914 54.5904 36.0973 54.6723 37.3547C54.7598 38.6898 54.4761 39.9681 54.468 41.2801C54.4599 42.6175 54.2603 43.9657 54.0161 45.2861C53.7797 46.5583 53.8553 47.8483 53.5977 49.1305C53.336 50.4336 53.167 51.8011 53.1308 53.1302C53.0947 54.4479 52.685 55.6717 52.5743 56.9582C52.4642 58.24 52.2926 59.5187 52.084 60.7886C51.8676 62.1066 51.5637 63.4102 51.3185 64.724C51.0826 65.9868 50.8724 67.2548 50.6324 68.6275C50.3673 68.992 50.0175 69.4739 49.672 69.949C49.5421 69.8656 49.3938 69.7716 49.2609 69.686C48.4885 69.7516 48.5993 70.4069 48.4553 70.7945C47.7106 71.057 47.0137 71.3033 46.2602 71.5692C46.1852 71.5186 46.0374 71.4199 45.9008 71.3281C45.0993 72.3093 44.2033 71.8002 43.4216 71.3823C42.6324 70.9596 41.9475 70.3434 41.1662 69.7753C40.6538 68.0941 39.0242 66.8222 39.2419 64.7775C38.9696 64.7649 38.8014 64.7573 38.5197 64.7447C38.1796 63.7172 37.8208 62.6302 37.4145 61.3998C37.3713 61.3939 37.1589 61.3651 37.0012 61.3437C36.5699 60.3963 36.1276 59.4862 35.744 58.5521C35.5934 58.1848 35.4044 57.6975 35.5287 57.3801C35.8439 56.573 35.7432 55.957 35.1983 55.2885C34.9479 54.9813 34.9503 54.4698 34.5966 54.1037L34.8177 55.5036C34.5871 55.436 34.4234 55.4149 34.4217 55.383C34.3592 54.435 33.8677 53.6293 33.4551 52.8345C33.1072 52.1651 32.8567 51.3903 33.0642 50.831C33.3333 50.1057 32.9605 49.5757 33.117 48.6514C32.7917 48.9738 32.6971 49.0672 32.6014 49.1622C31.7543 48.2114 31.4954 47.7995 31.7745 46.9036C31.998 46.1868 31.6546 45.6735 31.4068 45.0768C31.428 45.5591 31.4491 46.0414 31.4855 46.8707C31.0578 45.7551 30.7576 44.9714 30.3341 43.8658C29.5075 46.888 28.0668 49.2834 26.9044 51.806C25.7205 54.3755 24.9057 55.6123 23.3106 57.3318C23.0213 57.6445 22.9342 58.1378 22.6645 58.4769C22.1963 59.0633 21.607 59.5575 21.1643 60.1607C20.7581 60.7145 20.5604 61.4292 20.127 61.9551C18.979 63.3458 17.6047 64.5395 16.5431 66.0145C16.4391 66.159 16.1023 66.1371 15.8477 66.1981C15.7312 66.4754 15.6816 66.8582 15.4644 67.0669C14.4028 68.0871 13.357 69.1397 12.1867 70.0241C11.2567 70.7271 10.3848 71.5047 9.38126 72.1455C8.39 72.7789 7.30476 73.0255 6.29585 73.492C5.25185 73.9742 4.02926 73.8608 2.80411 73.5103C3.69093 72.0797 2.12857 71.1104 2.00374 69.8275C2.05176 70.433 2.09987 71.0391 2.14799 71.6453C2.05216 71.6544 1.95559 71.6629 1.85977 71.672L1.67319 70.4908C1.61675 70.1335 1.5662 69.7752 1.50267 69.4197C1.43035 69.0213 1.47968 68.5607 0.989777 68.3638C1.481 68.0595 0.795306 67.7271 0.993689 67.467C1.34851 66.9998 0.432994 66.9492 0.723951 66.4726C0.884239 66.2092 0.882875 65.8184 0.870975 65.4882C0.856143 65.0801 0.754683 64.6755 0.696489 64.3071C0.977164 64.1561 1.17249 64.0508 1.48161 63.8846C1.14967 63.8257 0.939867 63.7884 0.647402 63.7373C0.601168 63.5508 0.546299 63.3307 0.457209 62.9705C0.745311 62.5735 1.08687 62.103 1.39371 61.6803C1.32677 61.3669 1.27825 61.1405 1.23415 60.9334C0.966967 60.8811 0.749597 60.8383 0.448589 60.7798C0.727437 60.5875 0.940973 60.4405 1.15441 60.2927L1.0926 59.9014C0.846497 59.8296 0.583444 59.7524 0.293112 59.6681C0.46469 58.5886 0.791303 57.5564 0.587303 56.4389C0.495311 55.933 0.784721 55.3574 0.914129 54.754C0.922121 54.7622 0.8441 54.6886 0.725021 54.576C0.823276 53.6395 0.924868 52.669 1.05059 51.4733C1.42646 51.8103 1.67736 52.0356 1.91097 52.2449C1.90088 51.6629 1.7975 51.2929 1.48052 50.7427C1.50741 50.6921 1.52911 50.6384 1.56111 50.5904C1.62927 50.4911 1.70197 50.3951 1.78528 50.2813C1.68564 50.2152 1.5851 50.152 1.48841 50.0834C1.44153 50.0499 1.40116 50.0066 1.3549 49.9643C1.43382 49.4702 1.51352 48.9727 1.6182 48.3189L3.18752 48.0711C3.21407 47.9844 3.23997 47.8978 3.26577 47.8105C3.01814 47.6994 2.76997 47.589 2.41763 47.4307C2.29987 47.5217 2.09198 47.6834 1.69572 47.9901C1.76946 47.132 1.82921 46.4317 1.88814 45.7516C2.09656 45.6697 2.25328 45.6087 2.41623 45.5448C1.66417 44.7413 2.05311 44.0017 2.46712 43.2468C2.59879 43.006 2.6845 42.7248 2.72472 42.4528C2.81551 41.8428 2.86442 41.2267 2.94281 40.4873C2.96282 40.4781 3.11387 40.4066 3.42578 40.2581C3.35123 39.9304 3.26165 39.5374 3.11871 38.9127C3.04966 39.0276 3.17685 38.9029 3.20268 38.7606C3.4131 37.6086 3.48637 36.4332 3.79252 35.2969C3.82121 35.1898 3.76433 35.0632 3.77435 34.9483C3.84127 34.1999 4.71622 33.7304 4.51014 32.897C4.32816 32.161 4.84487 31.6019 4.94723 30.9377C5.05711 30.2235 5.23366 29.5195 5.39324 28.8141C5.44203 28.5965 5.57405 28.3918 5.58754 28.1757C5.60282 27.9412 5.52458 27.7007 5.4699 27.3545C5.66354 27.1536 5.91114 26.8951 6.09499 26.7044L5.90376 25.4937C6.54142 24.6599 7.19997 23.8268 6.92781 22.6557C6.90331 22.5516 6.89907 22.3973 6.95762 22.3263C7.95054 21.1258 7.69719 19.5218 8.326 18.1776C8.93218 16.8812 9.10497 15.3889 9.60306 14.0325C10.2623 12.2354 11.0505 10.4863 11.7931 8.7203C11.8607 8.55803 11.9731 8.39004 12.1108 8.28511C13.397 7.30254 14.6942 6.33367 15.8655 5.45174C16.77 5.48328 17.5133 5.50942 18.469 5.54292C18.6903 5.80175 19.0534 6.22735 19.4064 6.64046C19.1882 7.65422 19.0257 8.64711 18.7517 9.60866C18.4764 10.5751 18.1569 11.5418 17.738 12.4531C16.8225 14.449 16.3772 16.5987 15.615 18.6401C15.1639 19.8483 15.0732 21.1934 14.2591 22.2644C14.0361 24.45 13.2246 26.4805 12.6603 28.5772C12.4165 29.4836 12.0336 30.3638 11.9342 31.3226C11.8437 32.2062 11.614 33.0748 11.4492 33.9507C10.9318 36.6886 10.4025 39.423 9.90587 42.1644C9.64703 43.5917 9.4196 45.0268 9.22755 46.4651C9.03443 47.9136 8.99069 49.4075 8.73767 50.8165C8.29461 53.2858 8.54669 55.7693 8.19911 58.2316C8.01542 59.5317 8.28346 60.906 8.43206 62.2374C8.57593 63.5348 8.82665 64.8206 9.0893 66.4835Z" fill="#1B1F24"/>
</svg>
