<svg width="68" height="65" viewBox="0 0 68 65" fill="none" xmlns="http://www.w3.org/2000/svg">
<g clip-path="url(#clip0_5_158)">
<path d="M59.4933 22.4876C59.7818 22.1166 60.0908 21.7561 60.3999 21.4007C61.0437 20.6589 61.7083 19.9378 62.3933 19.227C63.7274 17.8363 65.1233 16.5073 66.514 15.1732C66.6809 15.006 66.8073 14.8028 66.8834 14.5791C66.9594 14.3555 66.9833 14.1173 66.9529 13.883C66.9225 13.6487 66.8389 13.4245 66.7084 13.2276C66.5778 13.0307 66.4038 12.8663 66.1998 12.7472C64.1394 11.583 62.0327 10.4447 59.9157 9.35271C57.8379 8.23006 55.6621 7.29903 53.4153 6.57123C52.3851 6.25187 51.2931 6.05614 50.2371 5.75738C49.5214 5.57645 48.8383 5.28446 48.2128 4.89203C47.3217 4.37694 46.3997 3.76398 45.4417 3.27979C45.3218 3.19834 45.192 3.13257 45.0553 3.08406L41.9957 1.99722C41.7331 1.92542 41.4561 1.92428 41.1929 1.99393C40.9297 2.06358 40.6896 2.20154 40.4968 2.39384C38.6528 4.06789 36.8036 5.74708 35.0883 7.54471C34.4084 8.2607 33.7748 9.09004 33.1156 9.85232C30.069 7.37878 27.333 4.54582 24.9668 1.41517C24.7496 1.07339 24.4111 0.826536 24.0193 0.724281C23.6274 0.622026 23.2114 0.671954 22.8549 0.864021L11.5229 6.13855C8.01518 7.77654 4.55893 9.42999 1.5302 11.8973C1.38614 12.0409 1.27184 12.2114 1.19384 12.3993C1.11585 12.5871 1.0757 12.7884 1.0757 12.9919C1.0757 13.1952 1.11585 13.3966 1.19384 13.5844C1.27184 13.7723 1.38614 13.9428 1.5302 14.0864C4.07251 16.5569 6.39729 19.2419 8.47877 22.1115C8.43676 22.1465 8.39714 22.1844 8.3603 22.2248C5.83979 25.2089 3.23858 28.1209 0.556677 30.9607C0.394181 31.1299 0.271621 31.3333 0.197989 31.5559C0.124357 31.7787 0.101524 32.015 0.131162 32.2477C0.160802 32.4803 0.242163 32.7035 0.369274 32.9006C0.496385 33.0977 0.66602 33.2639 0.865728 33.3868C2.78296 34.7133 4.82768 35.8452 6.96953 36.7658V52.3886C6.96939 52.66 7.04068 52.9266 7.17631 53.1617C7.312 53.3968 7.50713 53.592 7.74216 53.7278C14.9535 57.1016 22.2574 60.3621 29.6696 63.2673C30.8456 63.7658 32.0495 64.1958 33.2752 64.555C33.4546 64.6365 33.65 64.677 33.847 64.6734C34.2108 64.703 34.5738 64.6085 34.8771 64.4056C37.1952 63.5746 39.4547 62.5885 41.6403 61.4541C44.0097 60.2797 46.4564 59.3422 48.8515 58.2503C51.2468 57.1583 53.6882 55.8757 56.104 54.6961C56.4639 54.5539 56.7836 54.3262 57.0358 54.0327C57.288 53.7393 57.4649 53.3889 57.5515 53.0118C57.6665 52.2154 57.7148 51.4108 57.6957 50.6063L57.8811 46.2435L58.3189 36.3692C60.5544 35.4575 62.9908 34.9012 65.0151 33.5671C65.3678 33.3598 65.624 33.021 65.7273 32.6252C65.8306 32.2292 65.7727 31.8085 65.5662 31.4553C63.7539 28.4336 61.5873 25.6391 59.1122 23.1314C59.1122 23.0799 59.1122 23.0284 59.1122 22.9769C59.1122 22.9253 59.4006 22.6111 59.4933 22.4876ZM36.5358 10.5374C38.2304 8.66764 40.0796 6.93179 41.9442 5.24744L42.8662 5.58225C43.0207 5.69532 43.1956 5.77752 43.3813 5.82435C43.4671 5.84636 43.5515 5.87389 43.6337 5.90676L43.9273 6.03553C44.257 6.19521 44.5763 6.37034 44.8905 6.55062C45.5756 6.93694 46.2452 7.34901 46.9251 7.73018C48.6301 8.69338 50.5308 8.97157 52.3851 9.50727C54.4524 10.1461 56.4533 10.9827 58.3602 12.0054C59.8693 12.7832 61.358 13.5919 62.8414 14.4058C61.7804 15.4359 60.7295 16.4661 59.7149 17.5375C58.9885 18.3101 58.2829 19.0828 57.6081 19.9224C57.2616 20.3222 56.9432 20.7457 56.6552 21.1895C53.6213 19.0828 50.0208 18.0989 46.6161 16.6876C42.9023 15.1423 39.5851 12.7574 35.7991 11.3513C36.0464 11.0885 36.2885 10.8104 36.5358 10.5374ZM33.6822 32.5575C29.649 32.4803 26.0588 30.3169 22.6695 28.2772C19.5942 26.4679 16.4273 24.8191 13.1815 23.3374C16.9057 21.4625 20.7173 19.7318 24.5959 18.1866C26.8417 17.2954 29.2318 16.6 31.3539 15.4411C32.1475 15.0011 32.88 14.4591 33.5328 13.8288C33.6299 13.881 33.7317 13.9241 33.8367 13.9577C37.8904 15.2093 41.3518 17.8002 45.2305 19.4485C48.012 20.6332 51.1128 21.4316 53.7501 22.9717C49.8457 24.3676 45.9568 25.8717 42.2121 27.6436C39.2373 29.042 36.3842 30.6858 33.6822 32.5575ZM13.3155 8.70373L23.1794 4.10394C25.4868 7.00685 28.0881 9.66339 30.9419 12.0312C30.7513 12.1754 30.5607 12.3145 30.3598 12.4381C28.4128 13.6485 26.1206 14.277 24.0036 15.1114C21.5999 16.0592 19.2219 17.0688 16.8696 18.1402C15.0118 18.9918 13.1713 19.8846 11.3478 20.8187C9.41072 18.1085 7.27217 15.5481 4.9504 13.1592C7.53614 11.3461 10.467 10.0275 13.3155 8.70373ZM9.86437 25.1866C11.6517 26.0159 13.4339 26.84 15.2059 27.6951C17.3795 28.7252 19.4553 29.9357 21.5209 31.1822C24.2303 32.8048 27.1096 34.4118 30.1795 35.1794C29.9169 35.3957 29.6645 35.6017 29.3915 35.8233C27.5193 37.4062 25.7441 39.1004 24.0757 40.8969C23.244 40.5486 22.4613 40.0931 21.7475 39.5422C20.9686 39.0032 20.1509 38.5228 19.3008 38.1051C17.4075 37.2266 15.4538 36.4848 13.4546 35.885C11.5687 35.3262 9.71806 34.6554 7.91217 33.8762C6.57215 33.2578 5.27317 32.5541 4.02324 31.7695C6.01835 29.6232 7.96541 27.4341 9.86437 25.202V25.1866ZM25.8683 58.4048L25.6261 58.3018L25.3943 58.2039L24.6732 57.8949L23.0713 57.2098C22.0411 56.7668 21.0109 56.3186 19.9807 55.8654C18.0303 55.0103 16.0815 54.1518 14.1345 53.2899C12.7609 52.6787 11.3994 52.0554 10.0498 51.4202C10.0498 46.9561 10.0498 42.4919 10.0498 38.0278C10.8327 38.3111 11.5951 38.5789 12.4089 38.8365C14.301 39.3764 16.1474 40.0653 17.9307 40.8969C19.7902 41.7983 21.3354 43.2508 23.2928 43.941C23.3648 43.9644 23.439 43.9799 23.5143 43.9874C23.8119 44.225 24.1869 44.3444 24.5671 44.3225C24.9474 44.3007 25.3061 44.1392 25.5746 43.8689C27.7671 41.4049 30.162 39.1289 32.7344 37.0646C32.8168 39.9336 32.7602 42.8182 32.7344 45.682C32.7344 50.2149 32.6777 54.7528 32.5438 59.2856C32.5438 59.8728 32.4974 60.46 32.4717 61.0472C32.0236 60.8824 31.5754 60.7073 31.1325 60.5321C29.3812 59.8574 27.635 59.1362 25.8683 58.4048ZM51.2725 53.6453C50.1238 54.2222 48.9752 54.7992 47.806 55.34C45.5395 56.3959 43.1701 57.251 40.945 58.3481C39.1627 59.2187 37.4062 60.1098 35.5777 60.8463C35.5777 60.5888 35.5777 60.3312 35.5777 60.0737C35.6447 58.0545 35.6859 56.0302 35.7168 54.0111C35.7889 49.3581 35.8164 44.7068 35.7991 40.0573C35.7991 39.2434 35.7991 38.4244 35.7991 37.6054C36.7675 38.5567 37.7016 39.5404 38.6013 40.5569C39.3996 41.4686 40.1002 42.504 40.9346 43.3796C42.0369 44.5283 43.5101 43.7917 44.7154 43.2869C48.321 41.7776 51.664 39.6812 55.1254 37.8939L54.8782 44.4561L54.7133 48.8086C54.6824 49.4937 54.6566 50.1788 54.6258 50.869L54.5845 51.8992C54.5845 51.9353 54.5845 51.9816 54.5845 52.028C54.1106 52.2186 53.6419 52.5019 53.1886 52.7285L51.2725 53.6453ZM62.0276 31.6562C60.7244 32.2433 59.3234 32.6142 57.9996 33.1551C56.1546 33.9145 54.3525 34.7743 52.6015 35.7305C50.8913 36.6628 49.207 37.6364 47.4866 38.5429C46.6316 39.0013 45.7662 39.4392 44.9111 39.8461C44.4888 40.0418 44.0716 40.2324 43.6389 40.4076C43.4225 40.4951 43.1237 40.6548 42.8611 40.7681L42.5005 40.3148C42.2086 39.9474 41.9099 39.5868 41.6042 39.2331C40.9759 38.4845 40.3285 37.7565 39.6624 37.0491C38.7249 36.0498 37.7462 35.0969 36.7418 34.1698C40.8084 31.6158 45.1228 29.4794 49.6191 27.793C51.9936 26.8607 54.3939 25.9901 56.7994 25.1299C58.7581 27.1232 60.5097 29.3098 62.0276 31.6562Z" fill="#1B1F24"/>
</g>
<defs>
<clipPath id="clip0_5_158">
<rect width="67.4043" height="64" fill="white" transform="translate(0 0.67334)"/>
</clipPath>
</defs>
</svg>
