<svg width="49" height="56" viewBox="0 0 49 56" fill="none" xmlns="http://www.w3.org/2000/svg">
<path d="M35.0458 20.9871C35.3664 21.1333 35.6072 21.2177 35.8375 21.3322C38.1132 22.2651 40.3587 23.1875 42.6344 24.1204C43.3764 24.4143 43.498 25.0315 42.9844 25.6289C42.8202 25.808 42.6666 25.9569 42.4829 26.0953C39.1924 28.829 35.6176 31.0236 31.7285 32.6686C28.4492 34.0204 25.2766 35.6462 22.1537 37.3232C20.404 38.2647 18.6348 39.1656 16.8354 40.0559C15.1581 40.8876 13.5288 41.8713 11.9793 42.9168C10.359 43.9713 8.65 44.8932 6.94098 45.8152C6.48323 46.0604 5.93673 46.173 5.41133 46.2254C4.96725 46.2388 4.42385 46.1497 4.02353 45.9418C2.72324 45.2156 2.4393 44.0006 3.33557 42.7937C3.91249 42.0157 4.63837 41.3914 5.32515 40.6857C5.58118 40.4374 5.86732 40.1997 6.09324 39.9409C9.77884 35.7909 13.4449 31.6002 17.1305 27.4501C19.2768 24.9914 21.402 22.5929 23.5768 20.2455C27.4536 16.1287 32.117 13.3355 37.5386 11.7544C38.3998 11.5155 39.2504 11.3066 40.1417 11.0783C39.5427 10.6655 39.2507 10.6307 39.0322 11.0612C38.7011 10.9451 38.37 10.829 38.0389 10.713C37.7378 10.6074 37.4669 10.5125 37.3512 10.1677C37.3031 10.0156 37.0834 9.871 36.9223 9.84834C36.2691 9.68696 35.5751 9.54512 34.9219 9.38374C34.7006 9.33998 34.4794 9.29622 34.2687 9.22236C34.0278 9.13794 33.6033 9.19193 33.6396 8.79905C33.6669 8.33541 34.1005 8.35218 34.4226 8.39749C35.3393 8.48223 36.256 8.56696 37.1517 8.71191C39.6474 9.11352 42.2349 9.44593 44.7349 10.2209C45.4379 10.4335 46.1196 10.7063 46.8014 10.9791C47.6232 11.3347 47.8066 11.8722 47.5112 12.7151C47.3212 13.2569 47.0124 13.6557 46.5637 13.9716C45.758 14.5342 44.9825 15.1074 44.1679 15.5993C41.3987 17.2313 38.6101 18.8226 35.8409 20.4546C35.5864 20.602 35.3621 20.76 35.0458 20.9871Z" fill="#00C39A"/>
<path d="M26.4144 22.5465C28.7399 23.2193 31.0654 23.8922 33.3592 24.554C34.1307 24.7888 34.891 25.0553 35.6625 25.2902C36.1377 25.4568 36.5479 25.7073 36.6459 26.2397C36.7328 26.8038 36.4712 27.2457 36.01 27.5465C35.6233 27.8378 35.1843 28.0752 34.7564 28.281C24.9311 33.3747 15.1991 38.6079 5.7458 44.3657C5.16736 44.6965 4.58892 45.0274 3.9788 45.3471C3.5715 45.5957 3.13416 45.727 2.69389 45.3592C2.2853 45.0025 2.30295 44.5462 2.45842 44.1027C2.8788 43.0049 3.33085 41.9183 3.81458 40.8428C4.79153 38.7662 5.81126 36.669 6.7882 34.5924C7.88567 32.2734 8.90867 29.9639 10.0378 27.6561C11.2003 25.2532 12.4467 22.9153 13.6614 20.5663C14.2085 19.513 14.7239 18.4486 15.2932 17.3319C14.9447 17.2097 14.6279 17.0986 14.3428 16.9987C13.3812 16.6972 12.3769 16.4163 11.4265 16.0831C10.2542 15.6722 10.0851 14.937 10.9062 14.0153C11.4245 13.45 11.9746 12.8957 12.5563 12.3526C13.3314 11.6637 14.1698 10.9971 14.9654 10.3511C17.3207 8.4019 19.7076 6.4638 22.0312 4.50349C22.8696 3.83688 23.6476 3.64713 24.6092 3.94862C26.1521 4.41832 27.7062 4.85633 29.2491 5.32603C32.7579 6.37812 36.2984 7.44131 39.7961 8.52508C40.726 8.81546 41.6447 9.13752 42.5318 9.44847C42.8486 9.55953 43.1338 9.65948 43.4284 9.8339C44.45 10.3699 44.6287 11.1796 43.8297 12.0379C43.4731 12.4465 43.0436 12.7584 42.6029 13.102C39.6931 15.2125 36.5758 17.0014 33.438 18.7474C31.3715 19.8729 29.2322 20.9017 27.1134 21.9733C26.8567 22.0967 26.5999 22.2202 26.3638 22.3864C26.3844 22.4292 26.4049 22.472 26.4144 22.5465Z" fill="white"/>
</svg>
