<svg width="70" height="80" viewBox="0 0 70 80" fill="none" xmlns="http://www.w3.org/2000/svg">
<path d="M16.4187 50.5079C13.2427 50.5079 10.0627 50.5079 6.87886 50.5079C5.16686 50.4669 5.16686 51.0292 5.16686 53.3194C5.16686 55.6096 5.16686 57.724 5.16686 59.7154C5.11965 62.2107 5.16686 64.7175 5.16686 67.2127C5.17422 67.6636 5.35601 68.0946 5.67466 68.4162C5.99339 68.7379 6.42452 68.9256 6.87886 68.9406C10.0608 68.9406 13.2368 69.0636 16.4187 69.0636C16.9068 69.0575 17.3733 68.8624 17.7185 68.5199C18.0637 68.1774 18.2603 67.7146 18.2664 67.2302V52.3354C18.2588 51.8521 18.0615 51.3907 17.7165 51.0495C17.3714 50.7083 16.9059 50.514 16.4187 50.5079ZM8.56131 59.7623C8.52591 58.0052 8.59672 56.0723 8.43141 54.2214C10.4799 54.2214 12.5284 54.2214 14.5768 54.2214V65.4145C12.5815 65.4145 10.592 65.4848 8.59672 65.5083C8.59672 63.5812 8.59672 61.6542 8.56131 59.7623Z" fill="white"/>
<path d="M35.5693 40.5624C31.6613 40.7381 27.2396 39.9767 23.4378 40.8728C22.3339 41.1306 22.0151 41.7514 21.9738 43.4442C21.7672 47.1927 21.7731 50.707 21.7849 54.526C21.7849 58.7607 21.7849 62.9955 21.7495 67.2302C21.7571 67.7969 21.987 68.3385 22.3904 68.7398C22.7938 69.1411 23.3389 69.3707 23.9101 69.3798C27.8005 69.3798 31.6849 69.3798 35.5693 69.3798C36.1483 69.3737 36.7018 69.1428 37.1112 68.7366C37.5206 68.3304 37.7533 67.7812 37.7594 67.2068C37.7594 59.0067 37.9719 50.7422 37.5941 42.548C37.5819 42.0211 37.3639 41.5196 36.9862 41.1491C36.6084 40.7787 36.1004 40.5683 35.5693 40.5624ZM33.5031 44.5629C33.2611 51.3748 33.3674 58.2394 33.4028 65.0631C30.9627 65.0631 28.5266 65.0631 26.0944 65.0631C26.0944 61.5487 26.0531 58.0344 26.0944 54.5201C26.2104 51.2156 26.1099 47.9071 25.7933 44.6156C28.2491 44.8323 30.9233 44.6039 33.5031 44.5629Z" fill="white"/>
<path d="M54.9383 33.9909C51.0066 34.108 46.8624 33.7214 42.9839 34.3189C41.8032 34.4946 41.5494 34.9631 41.5494 37.0659C41.4196 46.9177 41.3251 57.203 41.2719 67.2422C41.2781 67.8048 41.5056 68.3426 41.906 68.741C42.3064 69.1393 42.8479 69.3666 43.4149 69.3742C47.258 69.3742 51.0893 69.421 54.9383 69.3742C55.511 69.3682 56.059 69.141 56.4657 68.7408C56.8724 68.3405 57.1059 67.7988 57.1166 67.2304C57.0753 56.7695 57.152 46.3202 56.8391 35.8593C56.8284 35.364 56.6242 34.8923 56.2695 34.5437C55.9148 34.195 55.4375 33.9968 54.9383 33.9909ZM52.9842 37.7219C52.7481 46.8416 52.7777 55.9553 52.754 65.075C50.3514 65.075 47.9487 65.075 45.546 65.075C45.546 55.9612 45.8824 46.6541 44.7963 37.6047C47.5 37.8449 50.2746 37.7277 52.9842 37.7219Z" fill="white"/>
<path d="M6.01079 42.1903C21.4068 34.7809 37.1393 28.133 52.8423 21.4382C52.266 23.5138 51.5663 25.5538 50.7466 27.5473C49.8139 30.0775 53.8872 31.1729 54.814 28.6543C55.6395 26.4483 56.3159 24.1902 56.8389 21.895C57.1518 20.5186 57.9015 18.4217 57.1164 17.0043C56.3489 15.6981 54.3418 15.3233 53.0489 14.7786L46.1361 11.9203C43.6685 10.8835 41.5138 14.4857 44.0109 15.5283C45.9944 16.36 48.2613 17.0863 50.3983 17.9649C34.8016 24.6186 19.1754 31.2197 3.88564 38.5647C1.4416 39.7361 3.57863 43.3617 6.01079 42.1903Z" fill="white"/>
</svg>
