<svg width="84" height="81" viewBox="0 0 84 81" fill="none" xmlns="http://www.w3.org/2000/svg">
<path fill-rule="evenodd" clip-rule="evenodd" d="M44.3644 0.00442944C42.0229 -0.0665235 41.4553 0.713959 42.0229 2.41683C42.0911 2.5872 42.1551 2.76575 42.22 2.9466C42.4253 3.51889 42.6388 4.11409 43.0163 4.54542C44.6482 6.5321 46.351 8.44783 48.0539 10.2926C48.4101 10.7082 48.965 10.9747 49.4691 11.2169C49.5676 11.2642 49.6641 11.3105 49.7568 11.3569C50.892 11.7826 52.0273 11.6407 52.9497 10.7893C53.943 9.93784 54.2268 8.73164 53.8011 7.52544C53.5173 6.67401 53.0916 5.75162 52.453 5.184C50.6792 3.62303 48.7634 2.20397 46.8477 0.855865C46.1666 0.458527 45.3038 0.24283 44.7316 0.0997889C44.5886 0.0640292 44.4637 0.0328103 44.3644 0.00442944ZM31.6639 11.0021C32.4444 13.4855 30.7415 15.827 27.9034 15.8979C26.2715 15.8979 24.9943 14.6917 23.93 13.2017C23.7417 12.9265 23.5534 12.6542 23.3663 12.3837L23.3658 12.3829L23.3656 12.3826L23.3655 12.3826C22.6364 11.3284 21.9257 10.3008 21.3048 9.22833C20.8081 8.44784 20.3824 7.52545 20.1695 6.60307C19.7438 5.0421 20.6662 4.11971 22.2981 4.33257C23.1496 4.40352 24.001 4.68734 24.7105 5.11305C26.2715 5.96449 27.8325 6.95783 29.3225 7.95117C30.4577 8.6607 31.3092 9.725 31.6639 11.0021ZM62.5508 10.353L62.5508 10.3531C62.7144 10.8184 62.8394 11.1738 63.0251 11.4988C63.3267 11.9423 63.6238 12.3902 63.9209 12.8381C64.8122 14.1817 65.7036 15.5254 66.7147 16.7493C68.5594 19.0198 70.4751 21.1483 72.3908 23.2769L72.3909 23.277C72.9585 23.9156 73.5971 24.4832 74.3776 24.9089C75.5838 25.5475 76.79 25.4765 77.8543 24.6251C78.9186 23.7027 79.2024 22.4965 78.7767 21.2194C78.5638 20.5098 78.1381 19.7294 77.5705 19.2327C77.1772 18.8744 76.7861 18.515 76.3956 18.1562L76.3955 18.1561L76.3954 18.156L76.3953 18.1559L76.3952 18.1558L76.3949 18.1555C73.6148 15.601 70.8632 13.0725 67.5661 11.144C66.7147 10.6474 65.7213 10.2217 64.7989 9.8669C64.3675 9.72307 63.8712 9.67642 63.2444 9.61752L63.2444 9.61751C62.9436 9.58924 62.6128 9.55815 62.2446 9.51213C62.3672 9.83086 62.4644 10.1072 62.5508 10.353ZM47.6283 29.1661C50.0407 29.0951 51.8145 26.8247 51.176 24.4832C50.9631 23.6318 50.4664 22.7094 49.8988 22.1418C47.6993 19.9422 45.4288 17.8136 43.0164 15.8269C42.023 14.9755 40.604 14.5498 39.3268 14.195C37.4111 13.6984 36.6306 14.6207 37.2692 16.5365C37.3401 16.7139 37.4111 16.909 37.482 17.1041L37.4822 17.1044L37.4822 17.1045L37.4822 17.1045L37.4822 17.1045L37.4822 17.1046C37.5531 17.2995 37.624 17.4945 37.6949 17.6717C39.3978 21.2903 41.7392 24.5542 44.2935 27.6761C45.145 28.6694 46.2802 29.1661 47.6283 29.1661ZM49.2601 66.3454C49.331 67.6936 49.8277 69.1126 50.6082 70.4607C52.3111 73.3698 54.5106 75.8531 56.8521 78.2655C57.9873 79.4008 59.3354 79.8265 60.8964 79.3298C62.7412 78.7622 63.8764 76.8465 63.3797 74.8598C63.1669 74.0084 62.7412 73.1569 62.1026 72.5183C60.3288 70.5317 58.484 68.6159 56.4973 66.7712C55.654 65.9881 54.606 65.4095 53.6141 64.8619C53.4376 64.7645 53.263 64.668 53.0916 64.5716C52.5949 64.2878 52.0273 64.1459 51.4596 64.075C49.8987 63.8621 49.1891 64.5007 49.2601 66.3454ZM35.8707 55.3564L35.8707 55.3564L35.8708 55.3564L35.8708 55.3565L35.8708 55.3565C35.9784 55.6388 36.0862 55.9217 36.2051 56.1992C36.0632 58.8244 33.7927 60.5273 31.3803 59.6759C30.4579 59.3921 29.5355 58.8954 28.9679 58.1859C26.9812 55.7735 25.0655 53.2192 23.2916 50.5939C22.6531 49.6715 22.3693 48.4653 22.2273 47.401C22.0145 45.7691 22.9369 44.9177 24.5688 45.2724C25.3493 45.4143 26.2007 45.6981 26.9102 46.1239C29.9612 48.0396 32.6574 50.381 34.857 53.2901C35.3172 53.9037 35.5931 54.6279 35.8707 55.3564ZM39.8945 77.2013C39.7526 76.9174 39.6343 76.6179 39.516 76.3183C39.2795 75.7191 39.043 75.12 38.6173 74.6469C37.553 73.3698 36.3468 72.1636 34.9987 71.0283C33.3669 69.6803 31.6641 68.4741 29.9613 67.268L29.961 67.2678C28.9677 66.6293 27.9034 65.9907 26.8391 65.6359C26.2715 65.4231 25.4201 65.565 24.9234 65.9197C24.2139 66.3455 24.2848 67.1969 24.6396 67.9064C25.1362 68.8998 25.6329 69.8221 26.2005 70.6736C27.4777 72.4474 28.8258 74.2922 30.2449 75.9241C31.3092 77.2013 32.5154 78.3365 33.7215 79.4008C34.2892 79.8975 35.0697 80.2522 35.8501 80.4651C38.0497 81.1037 39.8235 79.5427 39.8945 77.2013ZM5.13396 57.5032C5.10466 57.4113 5.07886 57.3303 5.05656 57.2635C4.91465 54.7091 6.1918 53.503 8.17849 53.8577C9.17183 54.1415 10.2361 54.6382 11.0166 55.2768C13.0033 56.9796 14.8481 58.8244 16.6928 60.6692C17.3314 61.3078 17.7571 62.1592 18.0409 63.0107C18.8924 65.8488 16.48 68.4031 13.6419 67.5516C12.7195 67.3388 11.868 66.7711 11.1585 66.1326C9.02992 64.2168 7.32706 61.9464 5.908 59.463C5.54917 58.8052 5.29116 57.9961 5.13396 57.5032ZM31.7347 32.7847C32.1604 34.5585 30.8123 36.1195 28.6128 36.1195C28.4709 36.0485 28.2817 35.9776 28.0715 35.8988L28.0714 35.8987C27.6509 35.7411 27.1464 35.5519 26.768 35.2681C25.8456 34.4166 24.9942 33.4942 24.2846 32.5009C23.1494 30.9399 22.0851 29.308 21.0917 27.6761C20.4322 26.5599 19.8452 25.4075 19.2529 24.2447C19.0169 23.7813 18.78 23.3163 18.5374 22.8513C18.3246 22.4256 18.1117 21.9999 18.0408 21.5741C17.757 20.5808 18.2536 20.0841 19.176 20.4389C19.7436 20.6517 20.3113 20.9356 20.8079 21.2903C24.1243 23.4362 26.8447 26.2973 29.57 29.1634L29.5701 29.1635C29.8184 29.4247 30.0668 29.6859 30.3156 29.9466C31.0252 30.6561 31.5218 31.7914 31.7347 32.7847ZM38.5466 36.9C37.9789 37.7514 38.1918 38.5319 38.5466 39.1705C39.1142 40.3767 39.8237 41.5829 40.6042 42.6472C40.8204 42.9594 41.0365 43.2737 41.2534 43.589C42.3178 45.1364 43.3987 46.7079 44.5776 48.1815C45.358 49.1748 46.2804 50.1682 47.2738 50.9487C48.5509 51.871 49.97 51.8001 51.0343 50.9487C52.1695 50.0972 52.5952 48.6072 51.9567 47.1172C51.46 46.0529 50.7505 44.9176 49.8281 44.1372C47.6913 42.2675 45.4918 40.5864 43.2294 38.8573L42.8037 38.5319C42.0232 37.9643 41.1718 37.5385 40.2494 37.1838C39.8489 36.9835 39.413 36.9599 39.0166 36.9384C38.8512 36.9294 38.6928 36.9208 38.5466 36.9ZM53.1798 35.2021C53.1283 35.0089 53.0771 34.8167 53.0209 34.6295C53.0919 34.5585 53.1628 34.5053 53.2338 34.4521C53.3047 34.3989 53.3757 34.3457 53.4466 34.2747C53.6833 34.3254 53.92 34.3721 54.1557 34.4186L54.1557 34.4186L54.1558 34.4186L54.1558 34.4187L54.1559 34.4187C54.9094 34.5673 55.6531 34.714 56.3557 34.9842C60.2581 36.3324 63.451 38.8157 66.431 41.6538C66.8567 42.0795 67.2115 42.6472 67.4244 43.2148C67.921 44.4919 67.7791 45.6981 66.7858 46.6915C65.7924 47.6848 64.5862 47.8267 63.3091 47.3301C62.7415 47.1172 62.1738 46.7624 61.7481 46.3367C60.0452 44.7758 58.4133 43.2148 56.9233 41.5119C55.8383 40.2355 54.9256 38.7294 54.0301 37.2519L54.0298 37.2513L54.0294 37.2507L54.029 37.2501C53.9294 37.0856 53.8299 36.9215 53.7304 36.7581C53.4693 36.288 53.3235 35.741 53.1798 35.2021ZM71.3266 34.0619C71.465 34.5232 71.5809 34.992 71.6963 35.4585C71.9357 36.4272 72.1728 37.3861 72.6038 38.2481C73.5971 40.3767 74.6614 42.4343 75.9386 44.35C76.5771 45.2724 77.5705 46.1239 78.5638 46.6915C79.841 47.401 81.1891 47.1882 82.3243 46.1948C83.4596 45.1305 83.6015 43.8534 83.1048 42.4343C83.0776 42.3709 83.0504 42.3063 83.0229 42.2409L83.0227 42.2404L83.0223 42.2395L83.0221 42.239C82.8347 41.7936 82.6333 41.3151 82.3243 40.9443C82.0319 40.6141 81.742 40.2827 81.4526 39.9519C79.5651 37.7943 77.6993 35.6614 75.3 34.0619C74.5905 33.5652 73.739 33.1395 72.8876 32.8557C71.8942 32.5718 71.4685 33.0685 71.3266 34.0619ZM0.0897293 33.9199C-0.123131 32.6428 0.657356 31.8623 2.21832 31.9332C2.36327 31.9816 2.54115 32.0216 2.73228 32.0647L2.73242 32.0648L2.7326 32.0648L2.73288 32.0648L2.73297 32.0649C3.10305 32.1483 3.52288 32.2428 3.85024 32.4299L4.20869 32.6986L4.20876 32.6987C6.35227 34.3054 8.42876 35.862 10.3779 37.6095C11.3713 38.4609 11.797 39.7381 11.797 41.0152C11.8679 43.9243 9.17171 45.6272 6.68835 44.1371C5.76597 43.5695 4.91454 42.789 4.34691 41.9376C3.14071 40.1638 2.00546 38.319 0.94117 36.4742C0.51545 35.6937 0.231636 34.7714 0.0897293 33.9199ZM57.9877 52.7935C57.491 53.8577 57.7748 54.8511 58.2005 55.7025C58.981 57.2635 59.8324 58.8245 60.8967 60.2435C62.2449 62.0883 63.7349 63.7912 65.2249 65.494C65.6506 65.9907 66.2182 66.4874 66.7858 66.7712C68.5597 67.7645 70.5463 66.7002 70.8302 64.7135C71.043 63.5074 70.6173 62.4431 69.8368 61.5916C66.6439 58.044 62.9544 54.993 58.6263 52.9354C58.5438 52.8941 58.4374 52.8769 58.307 52.8557C58.213 52.8405 58.1066 52.8232 57.9877 52.7935ZM54.0323 15.191C53.9666 14.9282 53.8956 14.6444 53.801 14.3369C53.9881 14.3785 54.1386 14.414 54.2633 14.4433C54.5643 14.5143 54.7148 14.5498 54.8653 14.5498C55.0191 14.6376 55.166 14.7187 55.3083 14.7972C55.6256 14.9722 55.9195 15.1343 56.2134 15.3303C59.162 17.2382 61.5924 19.6643 64.042 22.1096C64.5986 22.6652 65.1562 23.2219 65.7211 23.7737C66.5726 24.6251 67.0692 25.6184 67.1402 26.8246C67.2111 27.9599 66.8564 28.8823 65.863 29.4499C64.8697 30.0885 63.8054 30.0175 62.954 29.3789C62.1025 28.7404 61.393 27.8889 60.7544 27.0375C59.6192 25.4765 58.6258 23.8446 57.6325 22.2127C57.3511 21.7062 57.0697 21.2047 56.7897 20.7055C56.0104 19.3166 55.2413 17.9457 54.5106 16.5365C54.274 16.158 54.1637 15.7166 54.0323 15.191Z" fill="#FFD155"/>
</svg>
