<svg width="50" height="51" viewBox="0 0 50 51" fill="none" xmlns="http://www.w3.org/2000/svg">
<circle cx="25" cy="25.6733" r="25" fill="url(#paint0_linear_5_35)"/>
<path d="M25.0002 19.7065C24.0391 19.7065 23.14 19.9545 22.303 20.4505C21.4969 20.9156 20.8459 21.5666 20.3499 22.4037C19.8848 23.2097 19.6523 24.0933 19.6523 25.0543C19.6523 26.0154 19.8848 26.9145 20.3499 27.7515C20.8459 28.5576 21.4969 29.2086 22.303 29.7046C23.14 30.1697 24.0391 30.4022 25.0002 30.4022C25.9612 30.4022 26.8448 30.1697 27.6508 29.7046C28.4879 29.2086 29.1389 28.5576 29.604 27.7515C30.1 26.9145 30.348 26.0154 30.348 25.0543C30.348 24.0933 30.1 23.2097 29.604 22.4037C29.1389 21.5666 28.4879 20.9156 27.6508 20.4505C26.8448 19.9545 25.9612 19.7065 25.0002 19.7065ZM25.0002 28.5421C24.0391 28.5421 23.2175 28.201 22.5355 27.519C21.8535 26.837 21.5124 26.0154 21.5124 25.0543C21.5124 24.0933 21.8535 23.2717 22.5355 22.5897C23.2175 21.9076 24.0391 21.5666 25.0002 21.5666C25.9612 21.5666 26.7828 21.9076 27.4648 22.5897C28.1469 23.2717 28.4879 24.0933 28.4879 25.0543C28.4879 26.0154 28.1469 26.837 27.4648 27.519C26.7828 28.201 25.9612 28.5421 25.0002 28.5421ZM31.8361 19.474C31.8051 19.815 31.6656 20.1095 31.4176 20.3575C31.2006 20.6056 30.9215 20.7296 30.5805 20.7296C30.2395 20.7296 29.945 20.6056 29.697 20.3575C29.4489 20.1095 29.3249 19.815 29.3249 19.474C29.3249 19.133 29.4489 18.8384 29.697 18.5904C29.945 18.3424 30.2395 18.2184 30.5805 18.2184C30.9215 18.2184 31.2161 18.3424 31.4641 18.5904C31.7121 18.8384 31.8361 19.133 31.8361 19.474ZM35.3703 20.7296C35.3083 19.8305 35.1688 19.0555 34.9518 18.4044C34.6728 17.6294 34.2388 16.9628 33.6497 16.4048C33.0917 15.8157 32.4251 15.3817 31.6501 15.1027C30.999 14.8857 30.224 14.7617 29.3249 14.7307C28.4569 14.6687 27.0153 14.6377 25.0002 14.6377C22.985 14.6377 21.5279 14.6687 20.6289 14.7307C19.7608 14.7617 19.0013 14.8857 18.3502 15.1027C17.5752 15.3817 16.8931 15.8157 16.3041 16.4048C15.7461 16.9628 15.3275 17.6294 15.0485 18.4044C14.8315 19.0555 14.692 19.8305 14.63 20.7296C14.599 21.5976 14.5835 23.0392 14.5835 25.0543C14.5835 27.0695 14.599 28.5266 14.63 29.4256C14.692 30.2937 14.8315 31.0532 15.0485 31.7043C15.3275 32.4793 15.7461 33.1614 16.3041 33.7504C16.8931 34.3084 17.5752 34.7115 18.3502 34.9595C19.0013 35.2075 19.7608 35.347 20.6289 35.378C21.5279 35.44 22.985 35.471 25.0002 35.471C27.0153 35.471 28.4569 35.44 29.3249 35.378C30.224 35.347 30.999 35.223 31.6501 35.006C32.4251 34.727 33.0917 34.3084 33.6497 33.7504C34.2388 33.1614 34.6728 32.4793 34.9518 31.7043C35.1688 31.0532 35.2928 30.2937 35.3238 29.4256C35.3858 28.5266 35.4168 27.0695 35.4168 25.0543C35.4168 23.0392 35.4013 21.5976 35.3703 20.7296ZM33.1382 31.1927C32.7662 32.1228 32.0996 32.7893 31.1386 33.1924C30.6425 33.3784 29.8055 33.5024 28.6274 33.5644C27.9764 33.5954 27.0153 33.6109 25.7442 33.6109H24.2561C23.016 33.6109 22.055 33.5954 21.3729 33.5644C20.2259 33.5024 19.3888 33.3784 18.8618 33.1924C17.9317 32.8203 17.2652 32.1538 16.8621 31.1927C16.6761 30.6657 16.5521 29.8286 16.4901 28.6816C16.4591 27.9995 16.4436 27.0385 16.4436 25.7984V24.3103C16.4436 23.0702 16.4591 22.1091 16.4901 21.4271C16.5521 20.249 16.6761 19.412 16.8621 18.9159C17.2342 17.9549 17.9007 17.2883 18.8618 16.9163C19.3888 16.7303 20.2259 16.6063 21.3729 16.5443C22.055 16.5133 23.016 16.4978 24.2561 16.4978H25.7442C26.9843 16.4978 27.9454 16.5133 28.6274 16.5443C29.8055 16.6063 30.6425 16.7303 31.1386 16.9163C32.0996 17.2883 32.7662 17.9549 33.1382 18.9159C33.3242 19.412 33.4482 20.249 33.5102 21.4271C33.5412 22.0781 33.5567 23.0392 33.5567 24.3103V25.7984C33.5567 27.0385 33.5412 27.9995 33.5102 28.6816C33.4482 29.8286 33.3242 30.6657 33.1382 31.1927Z" fill="white"/>
<defs>
<linearGradient id="paint0_linear_5_35" x1="32.5595" y1="87.9551" x2="103.546" y2="17.9959" gradientUnits="userSpaceOnUse">
<stop stop-color="white"/>
<stop offset="0.147864" stop-color="#FFC5A3" stop-opacity="0.57"/>
<stop offset="0.443974" stop-color="#FF44EC" stop-opacity="0.89"/>
<stop offset="0.733337" stop-color="#6A01B9"/>
<stop offset="1" stop-color="#6B01B9"/>
</linearGradient>
</defs>
</svg>
