<svg width="199" height="102" viewBox="0 0 199 102" fill="none" xmlns="http://www.w3.org/2000/svg">
<g filter="url(#filter0_d_725_49)">
<path fill-rule="evenodd" clip-rule="evenodd" d="M188.887 87.7269C188.459 87.6967 188.256 87.6826 187.977 87.6626L187.763 87.4142C187.191 87.3464 186.638 87.2874 186.087 87.2138C185.623 87.1519 185.162 87.0462 184.696 87.0094C184.177 86.9688 183.667 86.868 183.139 86.851C182.663 86.8361 182.149 86.9576 181.698 86.7687C181.174 86.548 180.653 86.7929 180.133 86.6763C179.652 86.5686 179.151 86.5507 178.661 86.4936C178.66 86.5047 178.655 86.5792 178.648 86.6718C177.164 86.6935 175.672 86.6786 174.153 87.1555C174.117 87.1358 173.995 87.0701 173.845 86.9891C173.825 87.0928 173.807 87.1876 173.789 87.2852C172.953 87.4778 172.114 87.7263 171.276 87.8929C170.244 88.0977 169.272 88.5414 168.197 88.5906C167.657 88.6154 167.093 88.8192 166.611 89.0764C166.316 89.2344 166.227 89.0322 166.024 88.9823C165.986 89.1034 165.947 89.2244 165.895 89.3869C165.233 89.5394 164.551 89.6967 163.848 89.8586C163.853 89.6804 163.856 89.5726 163.861 89.4023C163.532 89.3201 163.248 88.9758 162.644 89.3445C162.825 89.0304 162.937 88.836 163.075 88.5968C162.635 88.5814 162.462 88.5751 162.244 88.5672C162.198 88.7089 162.156 88.8418 162.109 88.9878C161.911 89.0269 161.685 89.0725 161.466 89.1159C161.417 89.0365 161.334 88.9569 161.349 88.9175C161.466 88.6269 161.602 88.3439 161.732 88.0607C161.457 87.5916 161.092 87.9705 160.772 87.9472C160.778 87.8719 160.784 87.7968 160.791 87.6925C160.654 87.6357 160.507 87.5749 160.353 87.511C160.435 87.1887 160.513 86.8849 160.624 86.4537C161.286 85.7899 162.11 85.0857 162.768 84.2503C163.108 83.819 163.617 83.4939 163.819 83.0368C164.07 82.4695 164.661 82.2952 164.904 81.828C165.174 81.3131 165.693 81.051 165.964 80.6064C166.261 80.1182 166.762 79.8363 167.034 79.3929C167.681 78.3373 168.685 77.5428 169.176 76.3841C169.646 76.1594 169.74 75.4997 170.317 75.3999C170.497 74.8114 170.893 74.3602 171.259 73.8868C171.776 73.2187 172.066 72.3937 172.722 71.8134C172.908 71.6491 172.967 71.3421 173.157 70.9491C172.154 71.4087 171.294 71.8028 170.242 72.2851C170.143 72.267 169.815 72.206 169.484 72.1443C169.297 72.4315 169.165 72.6335 169.025 72.849C167.998 73.216 167.042 73.9957 165.814 73.9385C165.829 74.4823 165.247 74.5594 165.045 74.8873C163.731 75.2088 162.713 76.0011 161.451 76.6356C161.429 76.6329 161.243 76.6106 161.066 76.5893C160.575 76.7669 160.348 77.2941 159.766 77.3797C159.343 77.4413 158.897 77.7613 158.591 78.0882C158.217 78.487 157.722 78.7204 157.287 78.8239C156.746 78.9526 156.518 79.3762 156.049 79.6045C155.922 79.5895 155.736 79.5675 155.477 79.537C154.698 80.347 153.697 80.9212 152.75 81.6199C152.572 81.5824 152.394 81.5446 152.165 81.4962L151.288 82.2526C151.287 82.0314 151.287 81.9292 151.287 81.7162C150.884 82.137 150.432 82.1201 149.917 81.9948C149.893 81.8759 149.867 81.7388 149.843 81.6226C149.032 81.5518 148.198 81.4791 147.438 81.413C147.307 81.1299 147.208 80.9149 147.08 80.6376C147.116 80.5545 147.184 80.3986 147.252 80.243L147.079 80.0425C146.963 80.0895 146.836 80.1412 146.643 80.22C146.17 79.7472 146.18 79.1545 146.255 78.5544C146.594 78.1442 146.594 78.1442 146.437 77.4152C146.342 77.6778 146.306 77.7773 146.25 77.932C146.163 77.8719 146.065 77.8041 145.929 77.7092C146.096 77.5151 146.233 77.3557 146.402 77.158C146.262 77.1312 146.169 77.1129 146.1 77.0996C146.041 76.3985 145.981 75.696 145.914 74.9087L146.294 74.5803C146.123 74.5536 146.023 74.5376 145.887 74.5165C145.958 74.3966 146.024 74.2837 146.112 74.1346L145.8 73.7723C145.815 73.5655 145.827 73.4157 145.838 73.2649C146.157 73.2595 146.485 73.0297 146.799 73.301C146.743 72.6842 146.249 72.8225 145.788 72.7409C145.945 72.5801 146.067 72.4546 146.195 72.3231C146.105 71.7881 146.127 71.2411 145.724 70.7456C145.388 70.3322 145.617 69.7882 145.876 69.2781C145.735 69.2463 145.649 69.227 145.479 69.1892C145.606 69.0271 145.719 68.8836 145.863 68.7007C145.823 68.6651 145.763 68.6125 145.585 68.4554C145.551 68.0932 145.599 67.5572 145.434 67.0969C145.2 66.4414 145.595 65.8134 145.344 65.1461C145.124 64.561 145.088 63.9025 145.105 63.2371C145.129 62.33 144.937 61.4174 144.83 60.4413L144.361 60.846C144.393 60.9605 144.439 61.1254 144.502 61.3506C144.306 61.3805 144.134 61.4063 143.93 61.4379C143.822 61.7524 143.674 62.0763 143.606 62.4163C143.548 62.7011 143.256 62.9799 143.53 63.2956C143.132 63.4897 143.165 63.8804 143.136 64.2303C143.029 64.2222 142.954 64.2166 142.896 64.2123C142.783 65.4936 142.314 66.6604 141.756 67.8018C141.735 68.2144 141.715 68.6267 141.694 69.0351L141.41 69.2797C141.266 69.8754 141.14 70.3936 140.997 70.9833C140.748 70.8948 140.572 70.8321 140.344 70.7513C140.219 71.1021 140.103 71.4321 139.994 71.7378C140.241 71.9131 140.453 72.0647 140.664 72.2145C140.447 72.9938 140.248 73.7089 139.994 74.6234C139.783 74.2267 139.88 73.991 139.872 73.7372C139.355 73.821 139.595 74.2521 139.498 74.5128C139.362 74.5245 139.227 74.5351 138.937 74.5586C139.033 74.7543 139.124 74.9375 139.214 75.1206C139.134 75.1159 139.054 75.1111 138.974 75.1067C139.132 75.1607 139.291 75.2147 139.466 75.2746C139.336 75.5834 139.229 75.8383 139.123 76.0895C138.979 76.0886 138.869 76.0878 138.751 76.0867C138.74 76.1869 138.727 76.2932 138.711 76.4306C138.955 76.6257 139.214 76.8337 139.451 77.0227C139.113 78.0209 138.79 78.9703 138.468 79.9201C138.424 79.9166 138.381 79.9137 138.338 79.9102C138.328 79.8029 138.319 79.6959 138.295 79.4307C137.931 79.8826 137.632 80.2554 137.283 80.6887C136.904 80.4442 136.553 80.218 136.043 79.8894C136.023 79.8902 135.799 79.9004 135.515 79.9132C135.894 78.6138 135.968 77.3314 136.129 76.0773C136.352 74.3413 136.895 72.6945 137.225 70.9923C137.568 69.22 138.147 67.4924 138.617 65.7439C138.885 64.7485 139.123 63.744 139.41 62.7538C139.814 61.3639 140.198 59.9647 140.699 58.6099C140.92 58.013 140.911 57.3704 141.256 56.7877C141.552 56.2873 141.59 55.6332 141.735 55.0454C142.108 53.5446 142.524 52.0564 142.726 50.5145C142.857 49.5104 143.12 48.5228 143.354 47.3824L144.376 46.5013C144.598 46.7423 144.924 46.9262 144.886 47.4323C145.132 47.2634 145.362 47.1054 145.58 46.9561C146.593 47.3041 147.315 47.9979 147.964 48.9718C147.934 49.0985 147.872 49.3518 147.76 49.816C147.731 49.8715 147.589 50.147 147.417 50.4776C147.745 50.6625 147.991 50.8014 148.223 50.9321C148.261 51.4351 148.333 51.9367 148.326 52.4369C148.32 52.8632 148.724 53.3036 148.138 53.7061C148.373 53.7241 148.448 53.7293 148.588 53.7399C148.323 54.2343 148.961 54.7737 148.425 55.2492C148.537 55.4145 148.637 55.5629 148.755 55.7385C148.699 55.8156 148.637 55.9003 148.568 55.9942C149.058 57.3447 149.02 58.7779 149.083 60.224C149.137 60.2867 149.26 60.3642 149.277 60.4594C149.342 60.844 149.533 61.315 149.385 61.604C149.144 62.0731 149.641 62.6093 149.12 62.9944C149.286 63.2116 149.441 63.4131 149.607 63.6288C149.542 63.7456 149.474 63.8669 149.391 64.0153C149.472 64.1199 149.561 64.2346 149.698 64.4121C149.661 64.7797 149.618 65.2071 149.568 65.7129C149.312 65.5991 149.161 65.5319 148.951 65.4383C148.993 65.777 149.031 66.0826 149.069 66.3885C149.195 66.4281 149.321 66.4671 149.523 66.5289C149.457 66.7276 149.355 66.9068 149.35 67.0888C149.346 67.248 149.451 67.4102 149.506 67.5685C149.618 67.5979 149.754 67.6332 149.986 67.6938C149.916 67.9001 149.855 68.0762 149.755 68.373C149.689 68.4037 149.472 68.5049 149.225 68.6197L149.524 68.9663C149.367 69.3732 149.254 69.6562 149.498 70.1012C149.914 70.8576 149.998 71.7621 150.198 72.6093C150.229 72.739 150.085 72.9101 150.022 73.0602C150.14 73.0801 150.238 73.0968 150.228 73.0949C150.23 73.5816 150.296 74.0361 150.216 74.4634C150.135 74.898 149.91 75.306 149.707 75.8314C149.792 76.084 150.014 75.9777 150.396 75.4835C150.304 75.9815 150.273 76.1487 150.235 76.3514C150.082 76.3903 149.924 76.4303 149.623 76.5065C149.919 76.6638 150.118 76.7695 150.343 76.8886C150.349 76.9807 150.357 77.087 150.369 77.2603C150.514 77.266 150.758 77.3445 150.829 77.2661C151.178 76.8824 151.633 76.8156 152.051 76.7225C152.535 76.0182 153.382 75.8904 154.019 75.4544C154.721 74.9737 155.458 74.5213 156.237 74.1881C156.981 73.8684 157.752 73.562 158.393 73.1042C159.074 72.6179 159.846 72.3475 160.546 71.9196C161.259 71.4833 162.042 71.1451 162.824 70.8399C163.577 70.5464 164.238 70.0812 165.004 69.7956C165.783 69.5054 166.565 69.1446 167.283 68.726C167.995 68.311 168.78 68.1256 169.5 67.7605C170.217 67.3968 170.953 67.0667 171.697 66.7592C172.468 66.4399 173.261 66.1719 174.04 65.8693C174.789 65.5787 175.532 65.2726 176.34 64.9478C176.621 64.9686 176.992 64.9957 177.359 65.0228C177.357 65.1193 177.356 65.229 177.354 65.3279C177.644 65.7166 177.955 65.4418 178.209 65.3907C178.593 65.6998 178.954 65.989 179.343 66.3017C179.341 66.3583 179.337 66.4693 179.334 66.5721C180.119 66.6747 180.144 67.3185 180.179 67.8715C180.215 68.4301 180.113 68.997 180.068 69.5993C179.344 70.4254 179.205 71.7103 178.047 72.2682C178.13 72.4171 178.181 72.509 178.268 72.6627C177.834 73.1819 177.374 73.7307 176.854 74.3519C176.866 74.3768 176.92 74.4992 176.961 74.59C176.6 75.1313 176.262 75.6661 175.892 76.1777C175.746 76.3787 175.55 76.6397 175.34 76.6782C174.807 76.7767 174.513 77.0331 174.338 77.5428C174.257 77.7771 173.984 77.9443 173.906 78.2528L174.577 77.6742C174.617 77.819 174.66 77.9129 174.644 77.9243C174.161 78.2698 173.894 78.7964 173.608 79.2775C173.367 79.6829 173.038 80.0712 172.672 80.1452C172.198 80.2412 172.039 80.6139 171.497 80.8352C171.775 80.9019 171.856 80.9214 171.938 80.9409C171.712 81.7043 171.578 81.9775 171.01 82.1244C170.556 82.2418 170.396 82.5933 170.161 82.9216C170.41 82.7515 170.66 82.5813 171.088 82.2887C170.636 82.8836 170.319 83.3012 169.871 83.8905C171.749 83.334 173.496 83.3103 175.22 83.0969C176.975 82.8793 177.9 82.9048 179.34 83.1858C179.601 83.2365 179.892 83.1203 180.161 83.1519C180.627 83.2074 181.083 83.3577 181.55 83.3942C181.978 83.4276 182.423 83.2972 182.845 83.3542C183.962 83.506 185.049 83.8429 186.182 83.921C186.293 83.9286 186.393 84.1148 186.509 84.23C186.695 84.2006 186.915 84.1008 187.097 84.1474C187.989 84.3754 188.893 84.5843 189.748 84.9147C190.428 85.1772 191.128 85.3843 191.799 85.7064C192.463 86.0244 192.951 86.5197 193.531 86.9021C194.132 87.2979 194.474 87.9849 194.691 88.7513C193.639 88.7514 193.639 89.9009 192.998 90.3898C193.304 90.1649 193.61 89.9396 193.917 89.7143C193.953 89.7623 193.989 89.8108 194.026 89.8587L193.46 90.347C193.288 90.4947 193.115 90.6396 192.947 90.7904C192.759 90.9601 192.498 91.0856 192.555 91.4108C192.231 91.2501 192.281 91.7239 192.077 91.7042C191.712 91.6696 191.987 92.1727 191.637 92.1751C191.445 92.1767 191.238 92.3062 191.066 92.4213C190.854 92.5636 190.673 92.7508 190.496 92.9031C190.323 92.8037 190.203 92.7347 190.013 92.6252C190.091 92.8209 190.14 92.9447 190.209 93.1169C190.126 93.2029 190.027 93.3046 189.865 93.4706C189.559 93.4483 189.196 93.4218 188.871 93.3981C188.726 93.5369 188.622 93.6373 188.526 93.7289C188.587 93.8881 188.635 94.0177 188.704 94.1969C188.509 94.1121 188.361 94.0471 188.212 93.9824L188.025 94.1441C188.068 94.2985 188.113 94.4637 188.164 94.6458C187.534 94.9102 186.878 95.0768 186.351 95.5533C186.113 95.7689 185.712 95.8048 185.349 95.9348C185.35 95.9278 185.337 95.9935 185.316 96.0939C184.786 96.3502 184.237 96.616 183.56 96.9431C183.616 96.6324 183.653 96.4248 183.687 96.2317C183.381 96.4288 183.219 96.6057 183.031 96.9554C182.995 96.9577 182.959 96.9639 182.923 96.9627C182.848 96.9592 182.773 96.9522 182.685 96.9454C182.683 97.0201 182.682 97.0944 182.678 97.1684C182.675 97.2043 182.666 97.24 182.658 97.2786C182.37 97.3994 182.079 97.521 181.697 97.6807L181.049 96.9286C180.994 96.943 180.939 96.9578 180.885 96.9728C180.907 97.141 180.93 97.3092 180.962 97.5486C181.049 97.5812 181.204 97.6384 181.497 97.7479C181.017 97.9914 180.625 98.1904 180.244 98.3831C180.132 98.2994 180.048 98.2362 179.961 98.1707C179.781 98.835 179.26 98.872 178.723 98.9007C178.552 98.9101 178.374 98.9572 178.216 99.0254C177.862 99.1781 177.519 99.3551 177.1 99.5571C177.088 99.5495 177.001 99.4928 176.819 99.376C176.67 99.5235 176.49 99.7006 176.205 99.9824C176.289 99.9812 176.181 99.9547 176.097 99.9879C175.416 100.256 174.767 100.604 174.062 100.816C173.996 100.836 173.947 100.908 173.883 100.94C173.463 101.151 172.926 100.841 172.551 101.225C172.22 101.564 171.752 101.474 171.366 101.638C170.95 101.815 170.518 101.953 170.091 102.101C169.959 102.147 169.807 102.144 169.687 102.208C169.558 102.277 169.456 102.398 169.29 102.541C169.119 102.504 168.9 102.458 168.738 102.423L168.158 102.924C167.505 102.859 166.845 102.784 166.313 103.314C166.266 103.362 166.185 103.415 166.128 103.407C165.163 103.275 164.394 103.938 163.473 104.047C162.584 104.152 161.735 104.552 160.85 104.734C159.678 104.976 158.489 105.133 157.306 105.32C157.197 105.338 157.071 105.334 156.97 105.295C156.024 104.935 155.082 104.565 154.228 104.234C153.946 103.743 153.715 103.339 153.418 102.82C153.483 102.617 153.589 102.284 153.693 101.961C154.303 101.742 154.884 101.502 155.485 101.331C156.09 101.158 156.708 101.01 157.331 100.932C158.693 100.761 159.982 100.289 161.317 100.022C162.108 99.8633 162.852 99.4684 163.69 99.5481C164.924 98.9465 166.271 98.7087 167.57 98.3178C168.132 98.1487 168.726 98.0621 169.268 97.7991C169.768 97.5561 170.305 97.3919 170.825 97.191C172.45 96.5638 174.077 95.9442 175.697 95.3049C176.541 94.9722 177.378 94.6203 178.206 94.2485C179.039 93.8739 179.847 93.4049 180.679 93.0752C182.137 92.4971 183.373 91.5449 184.796 90.9184C185.547 90.5877 186.189 89.9925 186.848 89.4749C187.49 88.9711 188.09 88.4143 188.887 87.7269" fill="#FFD155"/>
</g>
<g filter="url(#filter1_d_725_49)">
<path fill-rule="evenodd" clip-rule="evenodd" d="M111.545 38.431C111.585 38.5349 111.686 38.7955 111.812 39.124C111.924 39.0939 112.046 39.0606 112.216 39.0147C112.468 39.1837 113.007 39.1274 113.06 39.6036C113.108 40.0321 113.841 39.8968 113.657 40.4365C114.208 40.9471 114.162 41.6981 114.24 42.3192C114.311 42.8824 114.639 43.3798 114.548 44.0012C114.468 44.5416 114.663 45.1228 114.737 45.688C114.539 45.8754 114.354 46.0488 114.099 46.2899C114.279 46.4016 114.413 46.4855 114.626 46.6175C114.624 46.7595 114.621 46.9934 114.618 47.2468C114.905 47.4205 115.174 47.584 115.491 47.7756C115.489 48.0231 115.487 48.2687 115.485 48.537C115.623 48.4837 115.752 48.4336 115.971 48.3486C115.897 48.6508 115.836 48.8995 115.771 49.1608C115.836 49.1709 115.937 49.1862 116.095 49.2102C115.711 49.9093 114.769 49.8368 114.356 50.6207C114.21 51.2316 114.413 52.0464 114.021 52.7504C113.87 53.0224 114.409 53.2645 113.989 53.5436C113.839 53.643 114.313 53.9911 113.924 54.1794C114.146 54.6744 113.931 55.1352 113.868 55.6219C113.815 56.0253 113.836 56.4738 113.881 56.901C113.919 57.2568 113.94 57.6146 113.964 57.972C113.985 58.2954 113.967 58.6254 114.027 58.9411C114.079 59.2101 114.352 59.5096 114.283 59.7115C114.189 59.983 114.162 60.2118 114.34 60.5002C114.06 60.5494 113.889 60.5797 113.717 60.6098C113.513 61.0875 113.3 61.5573 112.576 61.4286L111.801 60.5306C110.796 60.7331 109.802 61.0103 108.742 60.4219C108.521 60.1164 108.036 59.8327 108.023 59.2643C106.942 58.8138 106.708 57.8453 106.52 56.8544C106.294 55.6618 106.311 54.4616 106.48 53.2253C105.525 52.9598 104.588 52.7532 103.692 52.4321C103.076 52.2113 102.401 51.9735 101.962 51.4918C101.507 50.9924 100.886 50.5976 100.744 49.8162C100.68 49.4667 100.259 49.2433 100.148 48.8057C100.081 48.5429 99.9617 48.2898 99.9508 47.9918C99.945 47.831 99.8044 47.6749 99.6496 47.3687C99.6777 47.1164 99.8788 46.6355 99.7318 46.316C99.5176 45.852 100.116 45.5831 99.7339 45.1541C99.9372 45.1412 100.027 45.1355 100.168 45.1265C100.315 44.8983 100.48 44.6403 100.654 44.3715C100.877 44.459 101.064 44.5322 101.292 44.6215C101.387 45.0767 101.492 45.574 101.612 46.1456C101.999 45.7392 102.297 45.425 102.552 45.1569C102.764 45.1725 102.877 45.1805 103.002 45.1898C103.081 45.5122 103.161 45.8379 103.267 46.2678C103.559 46.0641 103.786 45.9058 104.066 45.7095C104.263 46.0668 104.462 46.4247 104.657 46.7768C104.631 46.9682 104.604 47.1753 104.576 47.3885C104.72 47.3991 104.787 47.4129 104.79 47.4028C104.848 47.2447 104.899 47.0834 104.963 46.8887C105.111 46.9698 105.202 47.0195 105.321 47.0837C105.184 47.4152 105.055 47.7304 104.906 48.0895C105.063 48.0254 105.188 47.9743 105.418 47.8797C105.39 48.2598 105.366 48.5972 105.334 49.0374C105.84 49.0154 106.288 48.9962 106.768 48.9756C107.258 48.6926 107.443 48.2234 107.528 47.652C107.723 46.3307 108.067 45.0281 108.249 43.7132C108.434 42.3668 108.681 40.9918 108.444 39.6061C108.389 39.2819 108.482 38.9328 108.509 38.5715L109.409 37.7951C109.512 37.8151 109.69 37.8496 109.873 37.8843C110.016 38.2499 110.165 38.6262 110.357 39.1156C110.565 38.8053 110.734 38.5535 110.954 38.2255C111.067 38.2647 111.243 38.3258 111.545 38.431" fill="white"/>
<path fill-rule="evenodd" clip-rule="evenodd" d="M72.7986 103.265C72.5952 103.591 72.4283 103.858 72.2122 104.204C72.1512 103.988 72.1109 103.845 72.0596 103.665C71.6082 103.538 71.1578 103.465 70.8022 103.874C70.6675 103.782 70.5808 103.722 70.4601 103.639L69.7534 104.248C69.622 104.239 69.5319 104.258 69.4742 104.223C69.0847 103.99 68.7274 103.622 68.3103 103.536C67.7737 103.425 67.6211 102.994 67.3347 102.685C67.1018 102.435 66.9776 102.079 66.8173 101.765C66.2449 100.639 65.8366 99.4519 65.5621 98.2243C65.3938 97.4691 65.2704 96.6988 65.1989 95.9285C65.1291 95.1759 65.1512 94.4146 65.132 93.6331C64.9738 93.6558 64.7967 93.6762 64.6214 93.7076C62.927 94.0116 61.2236 94.0235 59.5133 93.8829C58.7062 93.8165 58.1975 93.2318 57.6062 92.7999C57.3694 92.6274 57.2064 92.3528 57.0097 92.1247C56.8614 91.488 57.2928 91.0514 57.588 90.4849C57.9695 90.6209 58.3615 90.7608 58.8031 90.9177C58.8143 90.8686 58.8338 90.7834 58.8686 90.6303C58.9776 90.6381 59.1292 90.6052 59.2292 90.6628C59.8465 91.017 60.485 90.9176 61.1162 90.7572C62.4013 90.4315 63.6794 90.0813 65.0475 89.718C65.0674 89.2851 64.9775 88.7249 65.1473 88.2596C65.3035 87.8306 64.9028 87.3343 65.4133 86.975C65.2751 86.9504 65.1788 86.9333 65.0356 86.908C65.0928 86.6826 65.1508 86.4543 65.2315 86.1363C65.1735 85.9391 65.0853 85.6383 64.9987 85.3438C65.1369 85.2098 65.2653 85.0854 65.4504 84.9061C65.2756 84.8709 65.1844 84.8527 65.0426 84.824C65.3601 84.4577 65.0599 84.0608 65.1144 83.6616C65.1717 83.2397 65.0897 82.799 65.0654 82.3079C65.1484 82.3014 65.235 82.2946 65.4001 82.2819C65.3543 82.1387 65.3108 82.0039 65.2563 81.8348C65.3611 81.8314 65.4577 81.828 65.6325 81.8227C65.2265 81.1254 65.1516 80.3499 65.1399 79.6045C65.1277 78.8362 65.0206 78.0342 65.3732 77.2089C65.5041 77.2059 65.6795 77.2018 65.8777 77.1971C66.0361 77.8684 66.1985 78.5291 65.9127 79.1973L66.5027 79.8814C66.5951 79.7519 66.7186 79.6547 66.7039 79.5876C66.6436 79.3173 66.5407 79.0566 66.4985 78.9283C66.6161 78.2428 66.7124 77.6828 66.8338 76.9763C67.1333 77.2754 67.3283 77.471 67.5159 77.6581C67.4334 77.8206 67.3706 77.9443 67.3046 78.0745C67.3626 78.0885 67.4566 78.131 67.471 78.1121C67.6418 77.8903 67.8007 77.6592 67.9994 77.379C68.1796 77.4434 68.3991 77.5216 68.62 77.6001C68.6182 77.6931 68.6156 77.8036 68.613 77.923C68.8624 78.1399 69.3489 78.1015 69.3632 78.5842C69.2439 78.5816 69.1378 78.579 69.029 78.576C69.0465 78.6533 69.0401 78.7568 69.0819 78.7825C69.1999 78.8559 69.3378 78.8972 69.5156 78.9702C69.8433 79.4452 69.7449 80.0332 69.6757 80.6043C69.6103 81.1449 69.4852 81.6778 69.3644 82.3305C69.6055 82.284 69.8155 82.244 70.0517 82.1989C70.1163 82.473 70.1552 82.6385 70.1958 82.8125C70.2671 82.8215 70.3731 82.8341 70.5384 82.8545C70.3781 83.0447 70.2432 83.2054 70.0499 83.436C70.2455 83.5392 70.4123 83.6267 70.6057 83.7285L70.0361 84.2197C70.1173 84.5276 70.1882 84.7963 70.2557 85.0521C70.413 85.0696 70.5231 85.0818 70.6816 85.0994C70.5347 85.2824 70.4034 85.4465 70.2124 85.6856C70.3932 85.7835 70.5567 85.8711 70.7505 85.9758C70.623 86.1235 70.4855 86.2826 70.3064 86.4896C70.5067 86.6001 70.6693 86.6897 70.9385 86.8382C70.6411 86.9437 70.4246 87.0205 70.1634 87.1134C70.2227 87.3686 70.2833 87.6291 70.3421 87.8825C70.4283 87.9165 70.4999 87.9735 70.5566 87.9612C70.6566 87.9395 70.7425 87.8533 70.8424 87.8328C71.2304 87.7531 71.5837 88.0391 71.9665 87.9622C72.3793 87.8796 72.7322 88.0446 73.1158 88.1317C73.4612 88.21 73.7364 88.29 73.9541 88.5786C74.0285 88.6775 74.1974 88.7046 74.3501 88.777C74.3712 88.8928 74.401 89.058 74.4421 89.2839C74.234 89.5099 74.3329 89.9645 73.77 90.165C72.7868 90.5147 71.7992 90.9202 70.916 91.514C70.8669 91.5471 70.769 91.5078 70.6335 91.4978C70.627 91.9634 70.6205 92.4258 70.6126 93.0064C70.6356 93.0407 70.7359 93.1888 70.8439 93.3489C70.7024 93.5158 70.5669 93.6758 70.3562 93.9243C70.7119 94.0114 70.9776 94.0765 71.3736 94.1736C71.1202 94.2888 70.9515 94.3659 70.737 94.4634C70.7378 94.536 70.7393 94.683 70.7407 94.8425C71.076 95.0309 71.1408 95.2671 70.9771 95.7261C71.1787 96.1539 71.3724 96.5649 71.5342 96.9079C71.4352 97.0862 71.38 97.1857 71.3088 97.3144L71.6576 97.3402C71.5708 97.7564 71.4141 98.1677 71.4209 98.5764C71.4266 98.9451 71.6117 99.3106 71.7343 99.7343C71.7656 99.7434 71.8943 99.779 72.0983 99.8355C72.0772 100.192 72.0567 100.543 72.0365 100.879C72.1805 100.906 72.2865 100.926 72.4702 100.96C72.4683 101.212 72.4665 101.46 72.4643 101.736L72.8944 102.234C72.8602 102.603 72.8255 102.977 72.7986 103.265" fill="white"/>
<path fill-rule="evenodd" clip-rule="evenodd" d="M96.7747 88.5311C97.5821 88.6682 97.5833 88.6689 97.8343 87.9902C97.9798 88.1317 98.09 88.269 98.229 88.3636C98.3277 88.4305 98.4653 88.4403 98.5769 88.4732C98.5688 88.5869 98.5629 88.6619 98.5559 88.7577C98.7235 88.7105 98.8839 88.6657 99.1464 88.592C99.1908 89.0366 99.2323 89.4559 99.2745 89.8751C99.877 90.0961 99.4423 90.6023 99.5666 90.8917C99.7588 91.3385 99.3968 91.7825 99.7084 92.1685C100.072 92.6185 99.6693 93.0599 99.6941 93.4831C99.716 93.851 99.5399 94.2556 99.745 94.5721C99.912 94.6293 100.044 94.6746 100.261 94.7494C100.131 95.1107 100.019 95.426 99.9056 95.7419L99.5896 96.4542C99.5925 96.7854 99.5953 97.1166 99.5988 97.5589L99.7435 97.7267C99.5434 98.5988 99.3572 99.4141 99.1405 100.36C99.3843 100.3 99.5321 100.264 99.777 100.205C99.8255 100.737 99.8748 101.275 99.9275 101.854C100.778 101.511 101.578 101.189 102.403 100.856C102.45 101.037 102.489 101.19 102.541 101.398C102.913 101.254 103.26 101.119 103.657 100.966L103.978 101.338C104.32 101.349 104.619 101.358 104.93 101.368C105.114 101.56 105.289 101.743 105.457 101.919L106.035 101.961L105.812 103.295C105.805 103.661 105.579 103.789 105.253 103.831C105.153 103.843 105.044 103.896 104.969 103.963C104.103 104.744 103.015 105.097 101.957 105.496C101.178 105.791 100.369 106.006 99.5255 106.271C99.5019 106.583 99.3499 106.935 99.6139 107.309C99.3314 107.7 99.0419 108.1 98.7708 108.475C98.4417 108.448 98.1793 108.427 97.9159 108.406C97.9184 108.301 97.9211 108.193 97.925 108.032C97.6883 107.929 97.4334 107.818 97.2814 107.752C97.0521 108.021 96.8495 108.259 96.6515 108.491C96.3098 108.351 96.0017 108.223 95.6865 108.093C95.6787 108.199 95.6732 108.274 95.6712 108.301C95.3162 108.272 94.9586 108.243 94.4646 108.203C94.0347 107.539 93.067 107.185 92.5334 106.36C92.422 106.187 92.1111 106.066 91.886 106.057C90.9728 106.018 90.3609 105.352 89.6214 104.974C89.339 104.83 88.9989 104.631 88.7592 104.369C88.3779 103.954 87.9498 103.558 87.6652 103.081C87.215 102.325 86.7359 101.519 87.2771 100.602C87.456 100.299 87.7258 100.05 88.0109 99.7073L89.1615 101.041C89.2903 100.605 89.3765 100.313 89.505 99.8775C89.6468 99.9609 89.8163 100.06 89.9852 100.159C90 100.089 90.0149 100.02 90.0297 99.9501L90.7084 100.737C90.7912 100.536 90.851 100.39 90.9072 100.252C91.5439 100.257 91.8851 100.671 92.1955 101.133C92.354 101.071 92.4828 101.02 92.6896 100.94C92.7802 101.181 92.8696 101.421 92.9777 101.712C93.0611 101.609 93.1152 101.571 93.1236 101.525C93.1447 101.415 93.1093 101.281 93.1583 101.191C93.6494 100.283 93.3472 99.1897 93.8476 98.2872C93.537 97.629 93.9992 97.0329 94.0177 96.3929C94.0372 95.7274 94.3085 95.0711 94.4516 94.4067C94.5898 93.7635 94.3771 93.0641 94.7585 92.4579C94.5643 91.544 94.6493 90.6513 94.9569 89.7745C94.5733 89.3729 95.1062 88.8226 94.7107 88.3913L95.482 87.7261C95.5845 87.7334 95.7347 87.7445 95.8848 87.7555C95.6742 88.2577 95.8469 88.7307 95.9359 89.3114C96.538 88.9764 96.2957 88.1007 97.0247 87.9725C96.9417 88.1578 96.8739 88.3093 96.7747 88.5311" fill="white"/>
<path fill-rule="evenodd" clip-rule="evenodd" d="M86.9928 81.2015C86.6081 80.8359 87.1329 80.3067 86.5449 80.164C86.5293 80.2836 86.515 80.3894 86.5008 80.4953C86.4631 80.4922 86.4129 80.5043 86.3899 80.4847C85.9652 80.1203 85.6478 79.701 85.6506 79.103C85.6542 78.4457 85.6522 77.7877 85.6326 77.1308C85.6265 76.9233 85.5559 76.7178 85.5052 76.4617C85.0021 76.1917 84.4289 75.9564 83.8857 75.6996C83.3026 75.4236 82.8893 74.9356 82.293 74.6792C81.9761 74.5433 81.9195 73.874 81.6018 73.647C81.2458 73.3934 80.8201 73.2835 80.8361 72.7414C80.1108 71.889 80.2314 70.8639 80.2279 69.8407L81.6529 68.6118C81.8045 68.6188 81.9546 68.6261 82.1972 68.6373C82.2188 69.1005 82.2401 69.5641 82.2639 70.0768C82.3398 70.1109 82.5218 70.1919 82.7655 70.3006C82.8458 70.2314 83.0392 70.1449 83.0473 70.0433C83.0838 69.6043 83.4403 69.4615 83.6671 69.2177C83.9325 69.3384 84.1541 69.4393 84.4005 69.5512C84.4104 69.8227 84.4208 70.103 84.4362 70.528C84.7743 70.3042 85.0009 70.1541 85.2989 69.9567L86.006 70.7766C86.6 70.2971 86.0598 69.5427 86.5488 69.126C86.4796 68.5993 86.5999 68.0875 86.6587 67.5691C86.7269 66.9715 86.7629 66.3694 86.7946 65.7683C86.8235 65.2144 86.8578 64.6581 86.8363 64.1056C86.8137 63.5365 86.7275 62.9698 86.6907 62.6132C86.9349 62.1816 87.0724 61.9383 87.2433 61.6367C87.4235 61.682 87.6571 61.6846 87.8124 61.7962C87.9318 61.8819 87.9697 62.1003 88.0126 62.2673C88.0611 62.4574 88.0743 62.656 88.2771 62.8892C88.4358 62.5691 88.5943 62.2486 88.7689 61.8962C89.1616 62.0553 89.5819 62.2255 90.2192 62.4837C90.2108 62.474 90.3423 62.6543 90.5028 62.803C90.6276 62.9186 90.7885 62.9953 90.9779 63.118C90.9949 63.2062 91.0269 63.3689 91.0567 63.5194C91.2233 63.5382 91.334 63.5504 91.4324 63.5612C91.6213 64.7822 91.8837 65.9884 92.0027 67.2253C92.1025 68.2638 92.2054 68.2538 92.0285 68.7247C92.133 68.738 92.2383 68.7511 92.323 68.7617C92.3003 70.1039 92.278 71.4353 92.2555 72.7866L92.5003 73.0705C93.3295 72.9499 94.1316 72.833 94.9703 72.7107C95.0244 72.9321 95.0576 73.0676 95.1094 73.2772C95.466 73.2766 95.8955 73.4962 96.1843 73.0295C96.42 73.127 96.6124 73.2067 96.8016 73.2853C96.8117 73.398 96.824 73.5378 96.841 73.7293C97.2409 73.7591 97.5998 73.7859 97.988 73.8149C98.0848 74.0875 98.1675 74.3198 98.2589 74.5773C98.3949 74.6241 98.5587 74.6808 98.7096 74.7328C98.7355 74.8237 98.784 74.8989 98.7681 74.9559C98.7313 75.0833 98.617 75.2005 98.6155 75.3232C98.6058 76.0558 98.5599 76.1358 97.9609 76.3767C97.1852 76.6886 96.4371 77.1238 95.6319 77.297C94.5534 77.5292 93.4318 77.5613 92.2223 77.6904C92.1072 78.2 92.0286 78.8306 92.0016 79.4944C91.9756 80.1365 91.7804 80.7961 91.3276 81.5027C91.2821 81.233 91.2635 81.1227 91.2222 80.8826C90.9019 81.2831 90.633 81.6189 90.3645 81.9544L90.2146 81.8916C90.2776 81.5753 90.3406 81.2595 90.4039 80.9435L89.8495 80.9026L89.2655 81.4063C89.0191 81.278 88.7438 81.1337 88.4197 80.9647L87.7108 81.5761C87.4014 81.4146 87.124 81.2699 86.9928 81.2015" fill="white"/>
<path fill-rule="evenodd" clip-rule="evenodd" d="M76.227 61.2166C75.994 61.5401 75.7888 61.8254 75.4992 62.2278C74.8855 62.2741 74.1397 62.3156 73.3979 62.391C72.5132 62.4807 71.6097 62.4023 70.7454 62.6735C70.5451 62.7363 70.3528 62.8228 70.0875 62.9248C69.5245 62.7687 68.9068 62.1102 68.2513 62.8068C67.6684 62.7899 67.1822 62.3068 66.6624 62.6675C66.2774 62.5363 65.9168 62.3173 65.5483 62.3042C63.8653 62.2433 62.2904 61.7852 60.6245 61.0302C60.2394 60.6858 59.793 60.1688 59.2618 59.7223C58.4254 59.0188 58.2556 57.9417 58.5725 56.8785C58.6603 56.5851 58.5243 56.2238 58.874 55.973C59.1175 55.7986 59.2522 55.4729 59.4885 55.1405C59.6454 55.143 59.8532 55.146 60.1151 55.1498C60.2232 55.7628 59.9876 56.4117 60.4222 56.9854C61.1133 56.7016 60.8396 55.8978 61.3205 55.3633C61.4372 55.3655 61.644 55.3687 61.8388 55.3725C61.895 55.8245 61.9327 56.1289 62.0023 56.6897C62.2708 56.2546 62.5317 56.0263 62.5185 55.8151C62.4849 55.2807 62.7693 54.8095 62.6892 54.2518C62.6148 53.7323 62.751 53.18 62.9089 52.6369C63.1324 51.8693 63.1351 51.0404 63.2807 50.2464C63.4946 49.0796 63.618 47.8966 63.9936 46.7561C64.1426 46.3054 64.093 45.787 64.1177 45.298C64.14 44.8533 64.4178 44.4277 64.1771 44.0008L65.3276 43.0086L65.9676 43.7507C65.9632 43.8102 65.948 44.0159 65.93 44.2639C66.0589 44.1051 66.1924 43.9523 66.3125 43.7896C66.4345 43.6242 66.5438 43.449 66.7196 43.1874C67.1609 43.77 67.6093 44.236 68.3156 44.2483C68.3292 44.434 68.3369 44.54 68.3531 44.7541C68.5327 44.7163 68.7404 44.6717 69.1271 44.5892C68.9206 44.8964 68.8503 45.0008 68.7546 45.1435C68.8964 45.2115 69.0483 45.2583 69.167 45.349C69.2847 45.4379 69.3679 45.5712 69.4645 45.6831C69.5229 46.392 69.581 47.1011 69.6448 47.8797C69.587 47.9421 69.4648 48.0732 69.2853 48.2658C69.4169 48.2966 69.4986 48.3165 69.6051 48.3417C69.6595 48.5081 69.7198 48.6928 69.7865 48.8989C69.0024 49.5118 69.6661 50.2921 69.4611 50.9956C69.6713 51.0402 69.7757 51.0623 69.8234 51.0726C69.7811 51.6495 69.7381 52.2313 69.6945 52.8187C69.7399 52.82 69.6678 52.8182 69.6989 52.8187C69.6793 53.0801 69.6594 53.35 69.6397 53.6202C69.561 53.6241 69.4829 53.628 69.4042 53.6319L69.7926 54.0823C69.6226 54.0862 69.5238 54.0883 69.3025 54.0937C69.4966 54.261 69.6259 54.3722 69.8073 54.5286C69.8323 54.9895 69.8624 55.5438 69.8953 56.1445C69.6912 56.1608 69.5515 56.1714 69.4274 56.181C69.43 56.8067 69.4325 57.4483 69.4352 58.0958C69.6106 58.0512 69.7723 58.0097 70.0079 57.9492C70.0222 58.2766 70.0346 58.558 70.0462 58.822C70.1261 58.874 70.1812 58.9379 70.2438 58.9464C71.2685 59.0811 72.3368 59.0704 73.3073 59.3743C74.4004 59.7164 75.6282 59.9839 76.227 61.2166" fill="white"/>
<path fill-rule="evenodd" clip-rule="evenodd" d="M77.4293 38.6137C77.4365 38.5155 77.4421 38.4402 77.4478 38.3625C77.383 38.3494 77.3177 38.3264 77.2521 38.3245C76.8558 38.3135 76.4261 38.3816 76.0758 38.3381C75.7326 38.296 75.4082 38.3182 75.0769 38.2943C74.6364 38.2624 74.0807 38.152 73.806 37.8589C73.3147 37.3342 72.8113 36.8172 72.449 36.1358C71.8234 34.9595 71.6962 33.7701 71.7925 32.5018C71.9146 30.8917 72.0315 29.2813 72.1565 27.5883C71.5553 27.5889 71.054 27.0432 70.4135 27.4053C69.7989 27.157 69.1853 26.9079 68.5708 26.6596C68.0039 26.4303 67.6585 25.9532 67.2811 25.5112C67.0128 25.1962 66.7413 24.884 66.471 24.5706C66.4419 23.9541 66.4129 23.3376 66.3848 22.7317L67.8097 21.5027C67.9176 22.0895 68.0098 22.5915 68.1006 23.0842C68.9575 23.0124 68.4361 22.0165 69.1171 21.87C69.7471 22.0164 69.3702 22.6664 69.5299 23.1959C69.7907 22.8337 69.9419 22.6228 70.1272 22.3652C70.6164 22.6521 70.8539 23.0676 70.9648 23.6381C71.1207 23.583 71.2434 23.5395 71.4283 23.4735C71.6185 23.4944 71.4267 23.6866 71.5266 23.8729C71.8452 23.9645 72.2331 24.0763 72.7128 24.2145C72.8468 21.5161 73.7904 18.9711 73.4321 16.3303L74.2902 15.5901C74.4675 15.9295 74.6225 16.2258 74.8342 16.6311C75.0001 16.3415 75.1279 16.1186 75.3029 15.8129L75.8753 16.4766C76.0438 16.3942 76.1382 16.3477 76.233 16.3015C76.296 16.3309 76.3702 16.3484 76.4192 16.3931C76.502 16.4682 76.5572 16.576 76.6447 16.6444C77.5849 17.3826 77.7505 18.4688 77.8603 19.5347C77.9796 20.6877 77.9695 21.8544 78.0192 23.1029C78.8747 23.2451 79.7584 22.9107 80.7563 22.8716C80.8344 22.9399 80.9654 23.0556 81.1165 23.1883C81.4424 23.2491 81.8595 23.2203 82.1412 23.4017C82.7589 23.7995 83.5769 23.9603 83.9063 24.8774C83.8671 24.9626 83.785 25.1554 83.6927 25.3433C83.6005 25.5306 83.4981 25.7119 83.3883 25.9187C82.9632 25.8838 82.5147 26.3981 82.1968 25.8907C81.5445 26.1902 80.9703 26.4535 80.4137 26.7088C80.1589 26.6195 79.9279 26.5387 79.6668 26.4472L78.722 27.262C78.6103 27.1806 78.5252 27.1194 78.4204 27.0435C77.8392 27.0761 77.8185 27.6458 77.6614 27.8765C77.6614 28.4409 77.6616 28.8729 77.661 29.3498C77.5489 29.3568 77.4589 29.3622 77.3034 29.3722C77.3255 29.602 77.3492 29.8496 77.378 30.1512C77.3407 30.1435 77.4316 30.162 77.5661 30.1892C77.2554 30.6306 77.5645 31.0587 77.6728 31.5369C77.4629 31.5707 77.325 31.5928 77.1137 31.6269C77.2173 31.7946 77.3189 31.9586 77.4384 32.153C77.3933 32.2199 77.3343 32.3069 77.2291 32.4627C77.4913 32.8409 77.8062 33.3056 77.1932 33.6336C77.2135 34.006 77.1037 34.4634 77.2728 34.6195C77.7805 35.089 77.5594 35.7135 77.7914 36.2228C78.1786 36.7853 78.1862 36.7782 78.6421 36.984C78.5257 37.6018 78.2777 38.1641 77.9013 38.7037C77.7695 38.6784 77.6227 38.6508 77.4293 38.6137" fill="white"/>
<path fill-rule="evenodd" clip-rule="evenodd" d="M19.0684 72.0946C18.8782 72.3046 18.7637 72.4312 18.6191 72.5909C18.8118 72.6151 18.9212 72.6285 19.0967 72.6505C19.2249 73.2286 19.0267 73.8124 19.0517 74.3931L19.3005 74.4115C19.2303 74.7696 19.1598 75.128 19.1 75.4328C19.2302 75.7904 19.7106 75.9061 19.4948 76.3832C19.9977 76.322 20.4535 76.2614 20.9103 76.212C22.3434 76.0579 23.7629 75.7618 25.2238 75.959C26.0604 76.0716 26.8584 76.1895 27.4584 76.8699C27.5595 76.9846 27.7756 76.9973 28.0157 77.0861C27.8985 77.4722 27.7884 77.8335 27.6507 78.2865C25.0808 78.7587 22.547 79.3895 19.8015 79.4793C19.7426 79.6455 19.5373 79.92 19.6028 80.0904C19.8622 80.766 19.8111 81.4412 19.7597 82.1293C19.7535 82.2134 19.8627 82.3058 19.9187 82.3954C19.7754 82.5496 19.6533 82.68 19.4673 82.8798C19.6234 82.9809 19.756 83.0668 19.9881 83.2172C19.8965 83.777 20.0045 84.3993 20.3143 85.0204C20.4941 85.3811 20.4196 85.8681 20.4737 86.4445L22.0768 88.3033C21.9239 88.4532 21.7963 88.578 21.652 88.7195C21.6988 88.8404 21.7492 88.9698 21.8097 89.1249L21.22 89.6335C20.8973 89.4458 20.5665 89.2531 20.1849 89.0314C20.0831 89.245 19.9813 89.4581 19.8601 89.7119C19.7128 89.6224 19.5973 89.5525 19.4817 89.4825C19.4161 89.5041 19.3244 89.5056 19.2878 89.5513C18.9851 89.9322 18.4733 89.8398 18.2607 89.6834C17.3952 89.0471 16.2058 88.7056 15.9643 87.4293C15.2463 86.5784 15.2149 85.4836 14.8792 84.4943C14.7697 84.1714 15.2225 83.8542 14.753 83.5382C14.56 83.4082 14.6362 82.8726 14.5973 82.5205C14.5621 82.2013 14.5123 81.8816 14.513 81.5622C14.5137 81.1869 14.5849 80.8115 14.5832 80.4367C14.5813 80.1244 14.5186 79.8125 14.4783 79.4621C12.7656 79.578 11.1732 79.0172 9.55267 78.6115C8.45603 77.8125 7.21428 77.1889 6.36133 75.8816C6.36358 75.3978 6.36613 74.7786 6.36943 74.1134C6.80071 73.8727 7.01668 73.2904 7.68058 73.3835C7.71616 73.868 7.75142 74.3491 7.78719 74.8351C7.90292 74.8469 8.011 74.8587 8.11738 74.8698C8.66437 74.5654 8.25166 73.7431 8.87157 73.4814C9.06436 73.5591 9.25711 73.6373 9.45791 73.7179C9.39112 73.9424 9.31486 74.1996 9.23446 74.4691C9.43861 74.4845 9.58874 74.4956 9.73888 74.5067C9.76487 74.0472 9.99741 73.8412 10.5776 73.9387C10.7166 74.1519 11.1027 74.3002 11.0088 74.769C11.1766 74.7238 11.3408 74.6796 11.5751 74.6158C11.597 74.917 11.616 75.1839 11.6358 75.4573C11.7866 75.3988 11.9158 75.3482 12.1867 75.2431C12.0403 75.459 11.9708 75.561 11.8495 75.74C11.986 75.8646 12.1167 76.0834 12.2874 76.1216C12.9947 76.2795 13.7139 76.3828 14.5074 76.5195C14.5556 76.1442 14.5965 75.8606 14.6275 75.5763C14.8109 73.8965 14.6916 72.1746 15.3195 70.5555C15.036 70.2394 15.392 69.9717 15.3884 69.6745C15.3844 69.3383 15.4119 69.0017 15.4211 68.7745L15.996 68.2786C16.0662 68.887 15.809 69.4868 16.4306 69.9145C16.611 69.3728 16.7876 68.8425 17.0029 68.1967C17.1817 68.4839 17.3192 68.7055 17.476 68.957C17.6983 68.9015 18.0294 68.8199 18.3843 68.7316C18.4345 68.9186 18.4761 69.0746 18.5252 69.2571C18.6308 69.1988 18.7224 69.1478 18.8183 69.0946C18.8554 69.1206 18.937 69.1492 18.9394 69.1837C18.9735 69.6444 18.909 70.1333 19.0449 70.5592C19.2157 71.0934 19.0008 71.5856 19.0684 72.0946" fill="white"/>
<path fill-rule="evenodd" clip-rule="evenodd" d="M42.213 67.3591C42.1734 65.935 42.1495 64.7435 42.1053 63.5526C42.0634 62.4247 41.8981 61.3103 41.676 60.2138C41.5665 60.1939 41.4604 60.175 41.2787 60.1424C41.2818 59.8531 41.2845 59.5664 41.2876 59.2623L41.8512 58.7762C42.2438 58.8052 42.6729 58.9597 42.9804 58.8285C43.3555 58.6679 43.6004 58.8675 43.871 58.9409C44.8088 59.1949 45.6289 59.5662 45.9971 60.6336C46.2235 61.2899 46.4477 61.9488 46.6644 62.6097C46.7299 62.8086 46.8176 63.0004 46.9325 63.2903L46.8734 64.095L47.3376 64.6332C47.5278 65.5374 47.6869 66.2907 47.8604 67.1147C48.5354 67.0368 49.168 66.9775 49.7965 66.8894C51.042 66.7149 52.2568 66.7847 53.4117 67.324C53.6601 67.4401 53.8805 67.617 54.224 67.8365C54.2518 67.9302 54.3205 68.1602 54.3953 68.413C54.2899 68.6472 54.176 68.9002 54.0869 69.0975C53.5649 69.3053 53.1197 69.5083 52.6577 69.6601C52.1956 69.8124 51.7168 69.9136 51.2454 70.0374C50.7618 69.5908 50.3698 70.2779 49.8468 70.1415C49.4175 70.0293 48.8942 70.28 48.3353 70.3841C48.2014 72.4828 48.2912 74.5719 48.519 76.6575C48.5363 76.8176 48.6995 76.9618 48.7949 77.1131C48.663 77.7541 48.235 78.0429 47.6084 78.1041L47.3739 77.8322C46.606 77.9655 45.8864 78.0906 45.0989 78.2272C44.5995 78.1504 44.3314 77.5841 43.8644 77.3698C43.3443 77.1314 43.1678 76.6186 42.8495 76.3877C42.3275 74.6385 42.0444 72.9562 42.1811 71.176L41.679 70.5939C40.7918 70.6858 39.9283 70.3809 39.0704 70.0914C38.7827 69.9944 38.5416 69.7517 38.2872 69.5652C37.7699 69.1854 37.2119 68.8676 36.7924 68.352C35.9903 67.3657 35.9445 66.2078 36.5654 65.0701C36.957 64.3528 37.6141 63.9769 38.1843 63.3785C38.4476 64.3618 37.5932 64.9954 37.6255 65.9822C38.4045 65.2479 38.24 64.0596 39.1914 63.4928C39.3271 63.7149 39.4631 63.9373 39.6061 64.1716C39.8036 64.0943 40.0939 63.9812 40.3733 63.8726L41.3101 64.9588C41.4213 65.5329 41.5101 66.1248 41.6623 66.7002C41.7109 66.8853 41.9263 67.0266 42.213 67.3591" fill="white"/>
<path fill-rule="evenodd" clip-rule="evenodd" d="M47.4844 44.2435C47.5105 44.9211 47.5347 45.5403 47.5608 46.2244L48.5073 47.3219C48.3107 47.7021 48.1198 48.0724 47.9036 48.4902C47.1855 48.4478 46.5929 48.081 46.0574 47.7131C45.9437 47.92 45.843 48.1025 45.6935 48.3737C45.307 48.2744 44.908 48.2361 44.5697 48.0728C43.5566 47.5831 42.8634 46.7248 42.2228 45.9072C42.0857 45.461 41.963 45.0625 41.8097 44.5651C41.5426 44.7337 41.3615 44.9473 41.1989 44.9344C40.1644 44.8524 39.1288 44.7545 38.1047 44.5914C37.5526 44.5031 36.949 44.3854 36.5001 44.085C35.8436 43.6447 35.3053 43.0282 34.6744 42.4483C34.6191 41.8577 34.461 41.2463 34.5368 40.6658C34.6064 40.132 34.9283 39.6312 35.191 38.9884C35.4021 39.0125 35.6072 39.0353 35.8152 39.0588C35.8044 39.1732 35.663 40.6981 35.663 40.6981C35.7754 40.7067 35.8882 40.715 36.0538 40.727C36.1957 40.1184 36.2618 39.4252 37.091 39.1296C37.119 39.4741 37.1406 39.742 37.1787 40.213C37.3681 39.8554 37.4741 39.6562 37.6208 39.3798C37.8602 39.4468 38.1171 39.519 38.429 39.6066C38.3968 40.0462 38.3713 40.3915 38.3409 40.8083C38.5106 40.7134 38.6024 40.6626 38.7546 40.5778C38.8427 41.0718 39.342 41.4294 38.9862 42.0272C40.0083 42.2095 40.8503 42.0697 41.7314 41.9585C42.2685 38.7685 42.7938 35.6479 43.3263 32.4855L44.1515 31.7737C44.2569 32.1883 44.3414 32.5185 44.4269 32.8528C44.8378 32.8282 44.8507 32.4468 44.988 32.1621C46.1327 32.207 46.9193 32.8172 47.4998 33.754C47.5279 34.3194 47.5567 34.9 47.5861 35.4928C47.618 35.4937 47.6921 35.4965 47.8951 35.5036C47.7598 35.6542 47.6295 35.7994 47.499 35.9448C47.6094 35.9568 47.7201 35.9691 47.8308 35.9813L47.5124 36.2559C47.8776 37.8647 47.5341 39.4698 47.6754 41.1005C49.1474 40.7968 50.6154 40.2494 52.2082 39.9691C52.3766 40.0996 52.5674 40.2479 52.7926 40.4234C52.8039 40.1752 52.8123 39.9891 52.8206 39.8096C53.2932 39.5015 53.7043 39.9959 54.2133 39.8675C54.6592 39.7554 55.1984 40.0134 55.703 40.1088L56.5789 41.1244C56.5676 41.2775 56.5566 41.4276 56.541 41.6379C55.5791 42.3034 54.418 42.4298 53.2659 42.7156C53.2623 42.7444 53.2492 42.8498 53.2435 42.8957C52.5628 43.2411 51.7087 42.9275 51.139 43.5759C50.5026 43.4481 49.9804 43.846 49.3962 43.9511C48.8059 44.0576 48.2109 44.1338 47.4844 44.2435" fill="white"/>
<path fill-rule="evenodd" clip-rule="evenodd" d="M84.1821 36.4253C84.4447 36.3727 84.6512 36.3313 84.9544 36.2705C85.1482 36.5891 85.3433 36.9104 85.584 37.3056C85.9421 37.431 86.3893 37.7066 86.9564 37.4844C86.9169 37.0448 86.7683 36.6309 87.0122 36.1558C87.1831 35.8219 87.0145 35.3137 86.9951 34.8835C86.9737 34.4103 87.1156 33.952 86.9941 33.4579C86.8917 33.0424 87.0368 32.5727 87.0039 32.1318C86.9694 31.6764 86.8531 31.227 86.7727 30.7755L87.7369 29.9439C88.0209 30.1705 88.3348 30.3657 88.2573 30.9195C88.5428 30.6951 88.7639 30.5214 88.9659 30.3624C89.3969 30.6865 89.787 30.9802 90.1687 31.2668C90.0769 31.4406 90.0117 31.5636 89.9349 31.7085C90.0148 31.7764 90.0835 31.8599 90.1715 31.9055C90.9177 32.2886 91.053 32.5241 90.9867 33.3739C90.9588 33.7283 91.1331 34.0921 91.3697 34.2092C91.7414 34.3929 91.2781 34.5983 91.6818 34.7156C91.3673 34.7226 91.2685 34.7247 91.0978 34.7286L91.5088 35.205C91.3581 35.3957 91.2276 35.5602 91.0725 35.7558L91.4759 36.2234C91.4536 36.6403 91.4383 36.9346 91.4255 37.1798C91.9756 37.2145 92.4828 37.2464 92.9049 37.2734L93.4606 37.9177C93.8041 37.9431 94.1633 37.9696 94.5319 37.9974C94.5646 38.1596 94.5846 38.2621 94.6201 38.4421C94.8667 38.5466 95.1699 38.6756 95.5612 38.8419C95.6932 39.3286 95.8391 39.8663 95.9776 40.3769L95.2647 40.9918C94.0243 41.233 92.8212 41.466 91.6216 41.6987C91.6689 42.0414 91.7066 42.3141 91.7386 42.5452C91.5283 42.6008 91.366 42.6434 91.0871 42.7171L91.7737 43.5132C91.4298 43.6408 91.1894 43.7299 90.7395 43.897C91.0456 43.9678 91.1293 43.9869 91.2905 44.024C91.2608 44.3067 91.2293 44.6057 91.1794 45.0787C90.8521 44.8058 90.6472 44.6347 90.4217 44.4462C90.5061 44.3012 90.5744 44.1838 90.661 44.0342C90.6177 43.9594 90.5654 43.8689 90.5013 43.7584C90.3606 43.8141 90.232 43.866 90.1025 43.9175C90.0088 43.7347 89.9146 43.5501 89.7551 43.237C89.7219 43.5188 89.7092 43.6277 89.7015 43.6923C89.2784 43.938 88.8785 44.1708 88.4572 44.416C88.3088 44.3569 88.1157 44.2795 87.8889 44.1896C87.7376 43.8836 87.5659 43.5361 87.3903 43.1822C87.5813 43.0656 87.8242 42.9179 88.0668 42.7699C88.0486 42.7309 88.03 42.6923 88.0117 42.6527C87.694 42.7326 87.3765 42.8123 87.0964 42.8827C87.0069 42.5474 86.9176 42.2137 86.8246 41.8661C85.4376 41.3957 84.0464 41.0225 82.8044 40.2832C81.9797 39.7475 81.6164 38.8284 81.1122 38.0359C80.7201 37.4196 80.8389 36.6421 81.0953 35.938C81.1318 35.8376 81.1594 35.7345 81.2117 35.5669L82.0623 34.8332C82.3124 34.8517 82.5375 34.8686 82.6959 34.8803C82.6728 35.1923 82.6491 35.5091 82.635 35.6969L83.0889 36.2233C83.2352 36.0117 83.3759 35.8089 83.5366 35.5767C83.7325 35.5844 83.9123 35.5918 84.1615 35.6017C84.1692 35.9036 84.1755 36.1525 84.1821 36.4253" fill="white"/>
<path fill-rule="evenodd" clip-rule="evenodd" d="M40.3164 89.5796C40.4963 89.5929 40.6464 89.604 40.8591 89.6197C40.7215 90.52 40.5844 91.415 40.4478 92.31C40.4854 92.3301 40.5233 92.3499 40.5609 92.3694C40.6437 92.2416 40.7765 92.1222 40.7987 91.985C40.8405 91.729 40.8181 91.4633 40.9896 91.2443C41.1773 90.7231 41.3647 90.2015 41.5469 89.6943C42.073 89.6776 42.0175 90.0706 42.1464 90.4895C42.283 90.2376 42.3714 90.0744 42.4664 89.8984C42.5814 89.9069 42.7316 89.918 42.8823 89.9291C43.1772 90.2704 43.4721 90.6123 43.7705 90.9583C43.7546 91.1415 43.739 91.3289 43.7218 91.5265C43.7715 91.5525 43.8227 91.6035 43.8702 91.5997C44.1905 91.5778 44.5121 91.5581 44.8292 91.5111C45.1698 91.4601 45.5131 91.2341 45.8291 91.5834C45.8655 91.6237 45.9752 91.6101 46.0488 91.6029C46.3316 91.575 46.6186 91.4911 46.8942 91.5208C47.169 91.5502 47.4318 91.6906 47.7895 91.813C47.9142 91.9576 48.1109 92.1857 48.307 92.4136C48.2873 92.6768 48.2682 92.9394 48.252 93.1591C46.8408 93.7039 45.4463 94.2426 44.0521 94.7811C43.9243 95.1117 43.7864 95.4675 43.6482 95.8235C43.6227 95.8154 43.5971 95.8074 43.5716 95.7993C43.5408 96.212 43.5103 96.6251 43.4714 97.1526C43.5255 97.2235 43.6315 97.3629 43.7667 97.5406C43.69 98.3599 43.6102 99.218 43.5459 99.9102C43.8649 100.665 44.4847 101.188 43.8051 101.992C43.4178 101.872 42.7972 102.334 42.407 101.612C42.2049 101.705 41.956 101.819 41.6851 101.943C41.6646 102.018 41.6273 102.153 41.5981 102.258C41.1772 102.215 40.8091 102.177 40.2745 102.122C39.7519 101.643 39.083 101.029 38.3792 100.383C38.4271 99.0018 38.4744 97.6412 38.5244 96.1973C38.077 96.2659 37.6463 96.3721 37.2125 96.3879C36.7638 96.4041 36.3118 96.3323 35.8485 96.2981C35.726 96.0171 35.6009 95.7306 35.4654 95.4214C35.285 95.4938 35.1561 95.5454 34.9957 95.6093L34.4974 95.0315C34.5037 94.9424 34.5123 94.83 34.5217 94.6994C34.7244 94.4398 34.9372 94.1671 35.2 93.83C36.454 93.5754 37.8252 93.2969 39.1588 93.0257C39.7646 91.9054 39.667 90.6107 40.3164 89.5796" fill="white"/>
</g>
<defs>
<filter id="filter0_d_725_49" x="131.515" y="46.5013" width="67.1763" height="66.829" filterUnits="userSpaceOnUse" color-interpolation-filters="sRGB">
<feFlood flood-opacity="0" result="BackgroundImageFix"/>
<feColorMatrix in="SourceAlpha" type="matrix" values="0 0 0 0 0 0 0 0 0 0 0 0 0 0 0 0 0 0 127 0" result="hardAlpha"/>
<feOffset dy="4"/>
<feGaussianBlur stdDeviation="2"/>
<feComposite in2="hardAlpha" operator="out"/>
<feColorMatrix type="matrix" values="0 0 0 0 0 0 0 0 0 0 0 0 0 0 0 0 0 0 0.25 0"/>
<feBlend mode="normal" in2="BackgroundImageFix" result="effect1_dropShadow_725_49"/>
<feBlend mode="normal" in="SourceGraphic" in2="effect1_dropShadow_725_49" result="shape"/>
</filter>
<filter id="filter1_d_725_49" x="2.36133" y="15.5901" width="117.734" height="100.901" filterUnits="userSpaceOnUse" color-interpolation-filters="sRGB">
<feFlood flood-opacity="0" result="BackgroundImageFix"/>
<feColorMatrix in="SourceAlpha" type="matrix" values="0 0 0 0 0 0 0 0 0 0 0 0 0 0 0 0 0 0 127 0" result="hardAlpha"/>
<feOffset dy="4"/>
<feGaussianBlur stdDeviation="2"/>
<feComposite in2="hardAlpha" operator="out"/>
<feColorMatrix type="matrix" values="0 0 0 0 0 0 0 0 0 0 0 0 0 0 0 0 0 0 0.25 0"/>
<feBlend mode="normal" in2="BackgroundImageFix" result="effect1_dropShadow_725_49"/>
<feBlend mode="normal" in="SourceGraphic" in2="effect1_dropShadow_725_49" result="shape"/>
</filter>
</defs>
</svg>
