<svg width="50" height="51" viewBox="0 0 50 51" fill="none" xmlns="http://www.w3.org/2000/svg">
<circle cx="25" cy="25.6733" r="25" fill="url(#paint0_linear_5_38)"/>
<path d="M36.8583 31.4252C36.6103 31.9833 35.5562 32.4018 33.6961 32.6808C33.6651 32.7428 33.6186 32.9288 33.5566 33.2389L33.417 33.7969C33.324 34.0759 33.138 34.2154 32.859 34.2154C32.735 34.2154 32.5335 34.1844 32.2545 34.1224C31.7894 34.0294 31.3864 33.9829 31.0454 33.9829C30.4564 33.9829 29.9758 34.0604 29.6038 34.2154C29.3558 34.3394 28.9528 34.5874 28.3947 34.9595C27.7747 35.3935 27.2632 35.7035 26.8601 35.8895C26.2711 36.1375 25.6355 36.2461 24.9535 36.2151C24.3335 36.2771 23.6979 36.153 23.0469 35.843C22.6439 35.657 22.1788 35.378 21.6518 35.006L21.6053 34.9595C21.0473 34.5874 20.6442 34.3394 20.3962 34.2154C20.0242 34.0604 19.5437 33.9829 18.9546 33.9829C18.6136 33.9829 18.1951 34.0449 17.699 34.1689C17.451 34.1999 17.265 34.2154 17.141 34.2154C16.862 34.2154 16.676 34.0759 16.583 33.7969L16.4435 33.2854C16.3815 32.9443 16.335 32.7428 16.304 32.6808C14.1958 32.3708 13.1262 31.8748 13.0952 31.1927C13.0952 31.0687 13.1262 30.9602 13.1883 30.8672C13.2813 30.7432 13.3898 30.6812 13.5138 30.6812C14.8779 30.4642 16.0714 29.7511 17.0945 28.5421C17.6215 27.922 18.0091 27.302 18.2571 26.6819V26.6354C18.4431 26.2944 18.4896 26.0154 18.3966 25.7984C18.3036 25.5814 18.1176 25.4109 17.8385 25.2869C17.6525 25.1938 17.389 25.0853 17.048 24.9613L16.7225 24.8683C15.8234 24.4963 15.4204 24.0623 15.5134 23.5662C15.5754 23.2872 15.7769 23.0702 16.1179 22.9152C16.49 22.7602 16.8 22.7447 17.048 22.8687C17.482 23.0547 17.8541 23.1477 18.1641 23.1477C18.3501 23.1477 18.5051 23.1167 18.6291 23.0547L18.5826 22.4967C18.5206 21.3496 18.4896 20.4815 18.4896 19.8925C18.5206 18.9314 18.6446 18.1874 18.8616 17.6604C19.5437 16.1413 20.5977 15.0717 22.0238 14.4517C22.8919 14.0486 23.8064 13.8471 24.7675 13.8471H25.2325C26.5036 13.8471 27.6507 14.1726 28.6737 14.8237C29.7588 15.4747 30.5804 16.4203 31.1384 17.6604C31.3554 18.1874 31.4794 18.9314 31.5104 19.8925C31.5104 20.4815 31.4794 21.3341 31.4174 22.4502L31.3709 23.0547C31.4949 23.1167 31.6344 23.1477 31.7894 23.1477C32.0995 23.1477 32.4405 23.0547 32.8125 22.8687C33.1225 22.7137 33.448 22.7137 33.7891 22.8687C34.2541 23.0237 34.4866 23.3027 34.4866 23.7058C34.4866 24.1398 34.0836 24.5273 33.2775 24.8683L32.952 24.9613C32.177 25.2093 31.7274 25.4884 31.6034 25.7984C31.5104 26.0154 31.5569 26.2944 31.7429 26.6354V26.6819C31.991 27.302 32.3785 27.922 32.9055 28.5421C33.9286 29.7511 35.1222 30.4642 36.4862 30.6812C36.6413 30.7122 36.7498 30.8052 36.8118 30.9602C36.9048 31.0842 36.9203 31.2392 36.8583 31.4252Z" fill="white"/>
<defs>
<linearGradient id="paint0_linear_5_38" x1="-6.26795" y1="-11.8619" x2="-6.26795" y2="50.674" gradientUnits="userSpaceOnUse">
<stop stop-color="#FFFC00"/>
<stop offset="1" stop-color="#FF9000"/>
</linearGradient>
</defs>
</svg>
