<svg width="419" height="219" viewBox="0 0 419 219" fill="none" xmlns="http://www.w3.org/2000/svg">
<path d="M414.267 19.2328C410.159 69.5616 388.961 116.781 354.407 152.574C319.853 188.368 274.159 210.439 225.374 214.9L225.263 213.609C273.753 209.174 319.17 187.237 353.516 151.66C387.861 116.083 408.931 69.1486 413.015 19.124L414.267 19.2328Z" fill="#395051"/>
<path d="M190.075 215.027C153.833 211.976 119.001 199.18 89.0503 177.916C59.0998 156.652 35.0782 127.662 19.3808 93.8376L20.515 93.2778C36.1175 126.898 59.9939 155.712 89.7633 176.848C119.533 197.984 154.155 210.702 190.177 213.735L190.075 215.027Z" fill="#395051"/>
<path d="M7.13254 60.6296C4.05913 49.6301 1.84447 38.3946 0.509766 27.0306L1.75803 26.8747C3.08466 38.17 5.28594 49.3376 8.34077 60.2706L7.13254 60.6296Z" fill="#395051"/>
<circle cx="13.501" cy="76.2388" r="4" stroke="#4285F4"/>
<circle cx="207.501" cy="214.239" r="4" stroke="#FE7A00"/>
<circle cx="414.501" cy="5.23877" r="4" stroke="#FEE101"/>
</svg>
