<svg width="231" height="240" viewBox="0 0 231 240" fill="none" xmlns="http://www.w3.org/2000/svg">
<path d="M228 130.06C225.756 157.806 214.177 183.838 195.303 203.57C176.429 223.303 151.471 235.47 124.824 237.93L124.763 237.218C151.249 234.773 176.057 222.679 194.817 203.066C213.576 183.453 225.085 157.578 227.316 130L228 130.06Z" fill="#395051"/>
<path d="M105.543 238C85.7475 236.318 66.7214 229.264 50.362 217.541C34.0027 205.818 20.8818 189.836 12.3076 171.189L12.9271 170.88C21.4494 189.415 34.491 205.3 50.7515 216.952C67.0119 228.604 85.923 235.615 105.599 237.288L105.543 238Z" fill="#395051"/>
<path d="M5.61745 152.882C3.93871 146.818 2.72903 140.624 2 134.359L2.68182 134.273C3.40644 140.5 4.60881 146.657 6.2774 152.684L5.61745 152.882Z" fill="#395051"/>
<path d="M228.498 130.1L228.538 129.605L228.044 129.562L227.359 129.502L226.858 129.458L226.817 129.96C224.596 157.426 213.134 183.192 194.455 202.72C175.777 222.248 151.081 234.287 124.717 236.72L124.223 236.766L124.265 237.26L124.326 237.973L124.369 238.474L124.87 238.428C151.64 235.957 176.709 223.734 195.665 203.916C214.62 184.098 226.245 157.958 228.498 130.1ZM105.501 238.498L106.002 238.541L106.042 238.039L106.097 237.327L106.136 236.831L105.641 236.789C86.0563 235.125 67.231 228.146 51.0427 216.546C34.8543 204.945 21.8682 189.129 13.3814 170.672L13.1659 170.203L12.7042 170.433L12.0847 170.741L11.6509 170.958L11.8533 171.398C20.463 190.122 33.6394 206.173 50.0708 217.947C66.5023 229.722 85.6142 236.808 105.501 238.498ZM5.13557 153.015L5.27185 153.507L5.76108 153.361L6.42103 153.163L6.88986 153.022L6.75927 152.55C5.09756 146.548 3.90012 140.417 3.17847 134.215L3.12012 133.714L2.61928 133.777L1.93746 133.863L1.44611 133.925L1.50335 134.417C2.23535 140.707 3.44996 146.926 5.13557 153.015Z" fill="#395051" stroke="#395051"/>
<path d="M228.498 108.9L228.539 109.396L228.043 109.439L227.359 109.498L226.858 109.542L226.817 109.041C224.596 81.8312 213.135 56.3052 194.457 36.958C175.779 17.611 151.082 5.68365 124.718 3.27267L124.223 3.22739L124.265 2.73191L124.326 2.02644L124.369 1.52558L124.87 1.57136C151.638 4.01929 176.707 16.129 195.663 35.7637C214.618 55.3981 226.245 81.2977 228.498 108.9ZM105.501 1.50176L106.002 1.4596L106.042 1.96054L106.097 2.66643L106.137 3.16238L105.641 3.20412C86.055 4.85309 67.2292 11.768 51.0409 23.2609C34.8525 34.7538 21.8669 50.4234 13.3806 68.7086L13.1651 69.1731L12.7058 68.9465L12.0863 68.6407L11.6486 68.4247L11.8541 67.9819C20.4643 49.4298 33.6412 33.5275 50.0726 21.8621C66.5041 10.1966 85.6155 3.17597 105.501 1.50176ZM5.13589 86.1956L5.27267 85.7061L5.75986 85.8509L6.41981 86.0469L6.89133 86.1871L6.75895 86.6608C5.09736 92.6072 3.90001 98.6814 3.1784 104.825L3.11965 105.325L2.61985 105.263L1.93803 105.178L1.44551 105.116L1.50341 104.623C2.23546 98.3906 3.45016 92.2284 5.13589 86.1956Z" fill="#395051" stroke="#395051"/>
<circle cx="8.5" cy="161.5" r="2.32196" stroke="#4285F4" stroke-width="0.356074"/>
<path d="M116.822 237.5C116.822 238.822 115.971 239.822 115 239.822C114.029 239.822 113.178 238.822 113.178 237.5C113.178 236.178 114.029 235.178 115 235.178C115.971 235.178 116.822 236.178 116.822 237.5Z" stroke="#FE7A00" stroke-width="0.356074"/>
<circle cx="228.5" cy="122.5" r="2.32196" stroke="#FEE101" stroke-width="0.356074"/>
</svg>
