<svg width="1093" height="488" viewBox="0 0 1093 488" fill="none" xmlns="http://www.w3.org/2000/svg">
<path d="M81.6431 487.673C19.9628 390.084 -8.08749 273.877 2.01792 157.802L3.46503 157.936C-6.61113 273.676 21.358 389.546 82.8598 486.853L81.6431 487.673Z" fill="#395051"/>
<path d="M6.45873 121.337C13.0029 79.6056 24.4639 38.8574 40.5863 0L41.9218 0.591119C25.846 39.3361 14.4182 79.9663 7.89298 121.577L6.45873 121.337Z" fill="#395051"/>
<path d="M1011.22 487.673C1072.9 390.084 1100.95 273.877 1090.84 157.802L1089.4 157.936C1099.47 273.676 1071.5 389.546 1010 486.853L1011.22 487.673Z" fill="#395051"/>
<path d="M1086.4 121.337C1079.86 79.6056 1068.4 38.8574 1052.27 0L1050.94 0.591119C1067.01 39.3361 1078.44 79.9663 1084.97 121.577L1086.4 121.337Z" fill="#395051"/>
<circle cx="4.50098" cy="140.239" r="4" stroke="#1B1F24"/>
<circle cx="1087.5" cy="137.239" r="4" stroke="#23BFC8"/>
</svg>
