<svg width="390" height="313" viewBox="0 0 390 313" fill="none" xmlns="http://www.w3.org/2000/svg">
<path d="M381.121 98.8584L380.978 98.3715L380.493 98.5227L379.853 98.7224L379.383 98.869L379.522 99.3412C388.025 128.147 390.035 158.566 385.399 188.29C380.762 218.014 369.602 246.261 352.764 270.889L352.489 271.291L352.884 271.576L353.431 271.972L353.847 272.272L354.137 271.849C371.118 247.011 382.372 218.526 387.047 188.553C391.723 158.58 389.696 127.907 381.121 98.8584ZM345.795 283.173L346.097 282.791L345.724 282.479L345.206 282.044L344.812 281.715L344.493 282.117C336.387 292.344 327.309 301.714 317.393 310.087L317.021 310.401L317.325 310.781L317.75 311.312L318.07 311.713L318.463 311.382C328.464 302.937 337.62 293.487 345.795 283.173ZM71.4552 311.313L71.8475 311.644L72.1684 311.243L72.5933 310.712L72.8973 310.332L72.5257 310.018C62.6143 301.64 53.541 292.265 45.4409 282.033L45.122 281.631L44.728 281.96L44.2091 282.394L43.8358 282.707L44.1379 283.088C52.3072 293.407 61.4583 302.862 71.4552 311.313ZM34.2951 269.521L34.5786 269.948L34.9987 269.654L35.5515 269.266L35.9505 268.987L35.6812 268.58C19.5187 244.213 8.84854 216.445 4.44933 187.299C0.0501137 158.154 2.0328 128.367 10.2527 100.11L10.3903 99.6367L9.91952 99.492L9.27856 99.295L8.79334 99.1459L8.65156 99.6333C0.362603 128.128 -1.63662 158.165 2.79944 187.554C7.2355 216.944 17.9952 244.946 34.2951 269.521Z" fill="#395051" stroke="#395051"/>
<path d="M381.122 215.141L380.978 215.629L380.492 215.477L379.852 215.276L379.384 215.13L379.522 214.658C388.025 185.716 390.035 155.153 385.399 125.288C380.762 95.4235 369.601 67.0426 352.764 42.298L352.491 41.897L352.883 41.6121L353.431 41.2148L353.848 40.9121L354.138 41.3382C371.118 66.2925 382.372 94.9119 387.047 125.025C391.722 155.139 389.696 185.956 381.122 215.141ZM345.796 29.9608L346.096 30.3412L345.725 30.6531L345.206 31.0895L344.812 31.4218L344.492 31.0166C336.386 20.7413 327.308 11.3275 317.392 2.91516L317.023 2.60178L317.324 2.22264L317.749 1.68874L318.07 1.28485L318.464 1.61871C328.465 10.1035 337.621 19.598 345.796 29.9608ZM71.4543 1.68828L71.8477 1.3542L72.1691 1.75793L72.594 2.2916L72.8958 2.67056L72.5266 2.98415C62.6151 11.4021 53.5418 20.8209 45.4416 31.1008L45.1222 31.5061L44.7271 31.1741L44.2082 30.738L43.8374 30.4263L44.1372 30.0458C52.3064 19.6783 61.4575 10.1787 71.4543 1.68828ZM34.2945 43.6773L34.5783 43.2473L34.9996 43.544L35.5524 43.9332L35.9491 44.2125L35.6818 44.6175C19.519 69.1001 8.84869 96.9998 4.44938 126.283C0.050064 155.567 2.0328 185.495 10.2529 213.886L10.3895 214.358L9.92015 214.503L9.27919 214.701L8.79292 214.851L8.65138 214.362C0.362602 185.734 -1.63657 155.556 2.79939 126.029C7.23535 96.5014 17.9948 68.3673 34.2945 43.6773Z" fill="#395051" stroke="#395051"/>
<circle cx="39.5" cy="276.5" r="2.32196" stroke="#14A800" stroke-width="0.356074"/>
<circle cx="349.5" cy="277.5" r="2.32196" stroke="#FF0000" stroke-width="0.356074"/>
</svg>
