<svg width="707" height="389" viewBox="0 0 707 389" fill="none" xmlns="http://www.w3.org/2000/svg">
<path d="M691.771 0.111328C707.357 53.2211 711.041 109.303 702.543 164.104C694.044 218.905 673.587 270.985 642.723 316.394L641.725 315.67C672.483 270.417 692.87 218.517 701.339 163.905C709.808 109.293 706.137 53.4039 690.605 0.477302L691.771 0.111328Z" fill="#395051"/>
<path d="M627.561 337.097C612.702 355.954 596.061 373.23 577.883 388.669L577.109 387.695C595.224 372.309 611.808 355.093 626.615 336.301L627.561 337.097Z" fill="#395051"/>
<path d="M128.97 388.542C110.801 373.093 94.1681 355.808 79.3197 336.943L80.2652 336.147C95.0624 354.947 111.638 372.173 129.744 387.569L128.97 388.542Z" fill="#395051"/>
<path d="M61.4293 312.138C31.8023 267.21 12.2443 216.013 4.18073 162.278C-3.88284 108.544 -0.24872 53.6261 14.8182 1.528L15.9861 1.88909C0.971166 53.8076 -2.65042 108.536 5.38534 162.085C13.4211 215.634 32.9117 266.655 62.4365 311.428L61.4293 312.138Z" fill="#395051"/>
<circle cx="70.501" cy="324.239" r="4" stroke="#14A800"/>
<circle cx="635.501" cy="326.239" r="4" stroke="#FF0000"/>
</svg>
