<svg width="50" height="51" viewBox="0 0 50 51" fill="none" xmlns="http://www.w3.org/2000/svg">
<circle cx="25" cy="25.6733" r="25" fill="url(#paint0_linear_5_41)"/>
<path d="M34.4401 20.218C34.4711 20.342 34.4866 20.5435 34.4866 20.8226C34.4866 23.0547 33.944 25.2093 32.859 27.2865C31.7429 29.4876 30.1773 31.2392 28.1622 32.5413C25.961 33.9984 23.4344 34.727 20.5822 34.727C17.854 34.727 15.3584 33.9984 13.0952 32.5413C13.4362 32.5723 13.8238 32.5878 14.2578 32.5878C16.5209 32.5878 18.5516 31.8903 20.3497 30.4952C19.2646 30.4952 18.3035 30.1852 17.4665 29.5651C16.6604 28.9141 16.1024 28.108 15.7924 27.147C16.1024 27.178 16.3969 27.1935 16.6759 27.1935C17.11 27.1935 17.544 27.147 17.978 27.054C16.862 26.806 15.9319 26.2324 15.1878 25.3334C14.4438 24.4343 14.0718 23.4112 14.0718 22.2642V22.1712C14.7538 22.5742 15.4824 22.7912 16.2574 22.8222C15.6064 22.3572 15.0793 21.7681 14.6763 21.0551C14.2733 20.342 14.0718 19.567 14.0718 18.7299C14.0718 17.8619 14.3043 17.0403 14.7693 16.2653C15.9784 17.7844 17.451 18.9935 19.1871 19.8925C20.9542 20.7916 22.8298 21.2876 24.814 21.3806C24.752 21.0086 24.721 20.6366 24.721 20.2645C24.721 19.3965 24.938 18.5904 25.372 17.8464C25.806 17.0713 26.3951 16.4668 27.1391 16.0328C27.8832 15.5987 28.6892 15.3817 29.5573 15.3817C30.2703 15.3817 30.9214 15.5212 31.5104 15.8002C32.1304 16.0793 32.673 16.4513 33.138 16.9163C34.2541 16.6993 35.2926 16.3118 36.2537 15.7537C35.8817 16.9008 35.1686 17.7999 34.1146 18.4509C35.0446 18.3269 35.9747 18.0634 36.9047 17.6604C36.2227 18.6524 35.4011 19.505 34.4401 20.218Z" fill="white"/>
<defs>
<linearGradient id="paint0_linear_5_41" x1="-0.000314418" y1="0.67334" x2="-0.000314418" y2="50.674" gradientUnits="userSpaceOnUse">
<stop stop-color="#4ECEF6"/>
<stop offset="0.537697" stop-color="#4E8FF6"/>
<stop offset="1" stop-color="#226ADB"/>
</linearGradient>
</defs>
</svg>
